<svg xmlns="http://www.w3.org/2000/svg" xmlns:xlink="http://www.w3.org/1999/xlink" version="1.1" x="0px" y="0px" viewBox="0 0 2475 1650" style="enable-background:new 0 0 2475 1650;" xml:space="preserve">

<g id="Illustration">
	<g>
		<linearGradient id="SVGID_1_" gradientUnits="userSpaceOnUse" x1="120.6287" y1="819.9406" x2="2385.5757" y2="819.9406" fill="#ffffff">
			<stop offset="0" style="stop-color:#ffffff" fill="#ffffff"/>
            <stop offset="1" style="stop-color:#ffffff" fill="#ffffff"/>
		</linearGradient>
        <path style="fill:#ffffff;" d="M582.383,176.161c-129.863,82.09-221.649,18.701-300.14,105.643    c-244.868,271.233,65.432,374.035-78.708,415.638c-156.531,45.179-59.153,244.539,28.927,302.16    c88.08,57.62,153.582,92.283,28.439,151.181c-125.142,58.899-147.005,124.033-94.533,230.016    c52.471,105.984,151.882,139.383,565.014,145.669c413.132,6.286,1213.21-7.039,1431.469-67.346    c218.259-60.307,59.146-215.483,150.909-331.394c91.763-115.912,109.813-183.97-30.723-296.412    c-140.536-112.441-60.474-228.799-18.281-310.866c42.193-82.066,74.651-230.903-94.708-273.357    c-169.358-42.454-366.275,126.94-451.452,40.886c-85.177-86.054-47.682-200.184-233.698-171.452    c-186.016,28.733-248.564,251.131-410.78,238.897C911.903,343.188,857.671,2.144,582.383,176.161z"/>
        <g>
			<path style="fill:#ffffff;" d="M1992.906,1317.242c71.865,13.306,163.638-59.249,193.203-138.515     c30.425-81.572-25.36-115.743-24.93-228.935c0.489-128.582,72.717-147.961,120.493-321.278     c10.779-39.104,73.157-265.395-4.155-307.811c-71.483-39.218-272.271,73.334-307.464,217.392     c-25.094,102.72,52.479,145.849,22.852,265.487c-25.996,104.975-94.316,106.493-120.493,207.773     C1840.546,1134.654,1898.547,1299.772,1992.906,1317.242z"/>
            <path style="fill:#444a4a;" d="M1998.125,1348.394c-19.373-138.536,18.42-352.266,53.536-507.168     c38.018-167.708,81.168-304.504,81.599-305.867l5.981,1.625c-0.431,1.36-43.522,137.975-81.49,305.468     c-35.011,154.452-72.704,367.474-53.444,505.201L1998.125,1348.394z"/>
		</g>
        <g>
			<path style="fill:#ffffff;" d="M490.256,1301.103c-67.791,13.028-154.361-58.008-182.25-135.612     c-28.7-79.862,23.922-113.318,23.517-224.138c-0.461-125.888-68.594-144.86-113.661-314.546     c-10.168-38.284-69.009-259.834,3.919-301.361c67.43-38.397,256.835,71.797,290.032,212.836     c23.671,100.568-49.503,142.793-21.556,259.924c24.522,102.775,88.969,104.262,113.661,203.419     C633.978,1122.341,579.266,1283.999,490.256,1301.103z"/>
            <path style="fill:#444a4a;" d="M485.333,1331.602c18.274-135.634-17.376-344.885-50.5-496.541     c-35.863-164.194-76.566-298.123-76.973-299.458l-5.641,1.591c0.406,1.332,41.055,135.084,76.87,299.068     c33.026,151.215,68.582,359.775,50.413,494.615L485.333,1331.602z"/>
		</g>
        <g>
			
				<linearGradient id="SVGID_00000174568500513551672960000015159357385386775710_" gradientUnits="userSpaceOnUse" x1="2063.4907" y1="-471.6058" x2="1807.4905" y2="-51.6055" fill="#ffffff">
				<stop offset="0" style="stop-color:#232330" fill="#ffffff"/>
                    <stop offset="1" style="stop-color:#232330" fill="#ffffff"/>
			</linearGradient>
            <path style="fill:url(#SVGID_00000174568500513551672960000015159357385386775710_);" d="M421.499,1331.612     c0,16.622,13.613,30.222,30.251,30.222h1635.868c16.638,0,30.251-13.6,30.251-30.222l13.612-940.088     c0-16.622-19.583-49.073-55.475-46.634l-1598.75-41.368c-20.877-0.54-41.061,7.495-55.844,22.23     c-14.783,14.735-22.872,34.882-22.378,55.739L421.499,1331.612z"/>

            <linearGradient id="SVGID_00000076589216877309754830000012988348646097301909_" gradientUnits="userSpaceOnUse" x1="1772.3159" y1="58.0093" x2="1132.3156" y2="1026.0087" fill="#ffffff">
				<stop offset="0" style="stop-color:#ffffff" fill="#ffffff"/>
                <stop offset="1" style="stop-color:#ffffff" fill="#ffffff"/>
			</linearGradient>
            <path style="fill:url(#SVGID_00000076589216877309754830000012988348646097301909_);" d="M451.365,1302.617     c0,15.74,12.879,28.62,28.62,28.62h1568.183c15.741,0,28.62-12.879,28.62-28.62l12.845-853.42     c-1.513-51.357-46.538-69.815-73.832-68.725L483.499,339.362c-14.667-0.393-28.851,5.253-39.235,15.619     c-10.384,10.365-16.055,24.54-15.687,39.207L451.365,1302.617z"/>
            <g>
				<path style="fill:#444a4a;" d="M2059.841,896.866c-0.019,0-0.039,0-0.057,0c-2.144-0.031-3.854-1.797-3.821-3.937l1.016-69.21      c0.031-2.141,1.789-3.697,3.933-3.821c2.143,0.031,3.854,1.796,3.821,3.937l-1.016,69.21      C2063.686,895.166,2061.955,896.866,2059.841,896.866z"/>
                <path style="fill:#444a4a;" d="M2062.333,727.263c-0.019,0-0.038,0-0.058,0c-2.143-0.031-3.854-1.797-3.821-3.937l3.893-265.08      c-0.074-15.841-4.886-28.489-14.304-37.512c-17.55-16.817-45.394-15.946-46.585-15.911l-489.723-13.132      c-2.141-0.054-3.828-1.839-3.773-3.979c0.056-2.106,1.781-3.775,3.875-3.775c0.035,0,0.069,0,0.106,0.004l489.454,13.131      c3.037-0.143,32.449-0.681,52.01,18.06c10.994,10.537,16.611,25.055,16.695,43.153l-3.894,265.157      C2066.177,725.563,2064.446,727.263,2062.333,727.263z"/>
			</g>

            <linearGradient id="SVGID_00000022557723131928213520000016037130061400522926_" gradientUnits="userSpaceOnUse" x1="1481.9584" y1="399.9275" x2="1393.9585" y2="783.9271" fill="#ffffff">
				<stop offset="0" style="stop-color:#232330" fill="#ffffff"/>
                <stop offset="1" style="stop-color:#232330" fill="#ffffff"/>
			</linearGradient>
            <path style="fill:url(#SVGID_00000022557723131928213520000016037130061400522926_);" d="M295.439,1439.873h1915.327     c3.656,0,6.648-2.992,6.648-6.648v-69.303c0-3.656-2.992-6.648-6.648-6.648H295.439c-3.657,0-6.648,2.992-6.648,6.648v69.302     C288.791,1436.881,291.782,1439.873,295.439,1439.873z"/>
		</g>
        <g>
			<path style="fill:#3d9970;" d="M2115.4,1339.499c-67.87-26.541-102.277-139.132-69.787-180.44     c21.953-27.911,60.211-5.177,91.528-35.035c39.985-38.12,1.122-97.587,26.583-182.903     c21.667-72.604,84.532-145.88,126.871-136.809c44.319,9.495,78.169,111.796,48.427,178.774     c-19.342,43.557-55.506,49.499-59.282,88.475c-4.382,45.226,42.044,60.622,46.916,103.483     C2335.406,1252.037,2205.187,1374.612,2115.4,1339.499z"/>
            <path style="fill:#444a4a;" d="M2153.253,1365.198c-0.383,0.041-0.781-0.001-1.169-0.14c-1.369-0.491-2.081-1.997-1.59-3.366     c66.231-184.729,69.222-391.057,69.245-393.12c0.015-1.454,1.209-2.621,2.66-2.603c1.453,0.016,2.619,1.207,2.603,2.66     c-0.022,2.071-3.026,209.286-69.553,394.839C2155.098,1364.449,2154.224,1365.093,2153.253,1365.198z"/>
            <path style="fill:#ffffff;" d="M2292.011,1015.135c-0.41,0-0.825-0.11-1.2-0.342c-1.073-0.664-1.404-2.071-0.74-3.144     c23.047-37.232,47.136-92.001,31.021-141.495c-9.563-29.374-28.974-43.083-29.169-43.218c-1.037-0.719-1.296-2.141-0.578-3.178     c0.719-1.036,2.143-1.294,3.178-0.578c0.848,0.588,20.877,14.736,30.912,45.56c16.657,51.16-7.926,107.26-31.482,145.314     C2293.523,1014.752,2292.776,1015.135,2292.011,1015.135z"/>
            <path style="fill:#ffffff;" d="M2107.817,1325.829c-0.644,0-1.284-0.271-1.735-0.798     c-48.077-56.128-67.267-101.529-57.038-134.942c9.162-29.924,38.571-38.326,39.819-38.669c1.215-0.333,2.469,0.378,2.806,1.595     c0.336,1.215-0.378,2.472-1.593,2.809c-0.282,0.078-28.29,8.138-36.682,35.658c-9.565,31.367,9.855,76.521,56.156,130.578     c0.821,0.958,0.709,2.4-0.249,3.219C2108.871,1325.648,2108.343,1325.829,2107.817,1325.829z"/>
		</g>
        <g>
			<path style="fill:#3d9970;" d="M556.932,1331.962c70.714-59.245,66.54-208.222,10.881-244.667     c-37.608-24.624-74.332,18.097-123.96-5.082c-63.364-29.594-40.745-116.632-105.737-208.714     C282.808,795.137,177.799,732.6,130.663,760.577c-49.341,29.285-48.651,165.692,14.075,234.045     c40.791,44.451,86.581,36.979,106.847,82.218c23.516,52.493-25.969,89.708-14.51,143.1     C257.658,1315.848,463.383,1410.339,556.932,1331.962z"/>
            <path style="fill:#444a4a;" d="M521.892,1378.077c0.476-0.105,0.937-0.317,1.346-0.64c1.445-1.142,1.69-3.237,0.548-4.681     c-154.044-194.898-240.934-441.244-241.794-443.709c-0.606-1.738-2.509-2.656-4.243-2.049c-1.738,0.605-2.656,2.506-2.049,4.243     c0.864,2.476,88.126,249.88,242.858,445.647C519.376,1377.924,520.684,1378.343,521.892,1378.077z"/>
            <path style="fill:#ffffff;" d="M213.153,1013.638c-0.513,0-1.029-0.172-1.456-0.525c-43.526-36.064-95.552-93.302-96.218-161.176     c-0.402-40.831,17.8-65.733,18.575-66.773c0.753-1.01,2.179-1.22,3.194-0.467c1.012,0.753,1.221,2.182,0.469,3.195     c-0.181,0.244-18.145,24.911-17.668,64.293c0.798,66.005,51.864,122.033,94.563,157.411c0.971,0.805,1.106,2.245,0.301,3.216     C214.461,1013.356,213.81,1013.638,213.153,1013.638z"/>
            <path style="fill:#ffe6d5;" d="M559.59,1312.043c-0.284,0-0.573-0.054-0.854-0.167c-1.169-0.472-1.735-1.803-1.262-2.973     c34.298-84.962,39.203-145.499,14.58-179.932c-21.382-29.9-58.547-28.238-58.925-28.213c-1.241,0.086-2.334-0.896-2.405-2.155     c-0.07-1.258,0.892-2.335,2.151-2.406c1.615-0.085,39.977-1.868,62.858,30.066c25.633,35.779,20.916,97.803-14.023,184.351     C561.349,1311.503,560.494,1312.042,559.59,1312.043z"/>
		</g>
        <g>
			
				<linearGradient id="SVGID_00000163793104496560516070000012042819847117392046_" gradientUnits="userSpaceOnUse" x1="1239.5229" y1="1047.4829" x2="1169.0244" y2="1047.4829" gradientTransform="matrix(-1 0 0 1 1880.7813 0)" fill="#ffffff">
				<stop offset="0" style="stop-color:#ffe6d5" fill="#ffffff"/>
                    <stop offset="1" style="stop-color:#ffe6d5" fill="#ffffff"/>
			</linearGradient>
            <path style="fill:url(#SVGID_00000163793104496560516070000012042819847117392046_);" d="M711.757,1036.937     c0,0,0,81.514-35.736,74.869c-21.834-4.06-34.762-91.871-34.762-91.871s22.591-50.319,25.114-33.848     C684.711,1105.821,698.37,1014.18,711.757,1036.937z"/>

            <linearGradient id="SVGID_00000056397789297209558210000015223027362482453166_" gradientUnits="userSpaceOnUse" x1="-82.3485" y1="1387.911" x2="-80.4904" y2="1592.2926" gradientTransform="matrix(1 0 0 1 738.483 0)" fill="#ffffff">
				<stop offset="0" style="stop-color:#232330" fill="#ffffff"/>
                <stop offset="1" style="stop-color:#232330" fill="#ffffff"/>
			</linearGradient>
            <path style="fill:url(#SVGID_00000056397789297209558210000015223027362482453166_);" d="M615.776,1520.772     c0,0-2.699,15.277-4.022,30.399c-0.517,5.91,4.04,11.042,9.967,11.288c20.139,0.839,63.215,2.47,78.672,1.78     c2.323-0.103,3.843-2.483,2.983-4.643l0,0c-0.72-1.811-2.111-3.276-3.881-4.089l-71.155-32.702L615.776,1520.772z"/>

            <linearGradient id="SVGID_00000132052336003941806210000002027652356880644268_" gradientUnits="userSpaceOnUse" x1="-124.9176" y1="1520.709" x2="-101.7728" y2="1520.709" gradientTransform="matrix(1 0 0 1 738.483 0)" fill="#ffffff">
				<stop offset="0" style="stop-color:#ffe6d5" fill="#ffffff"/>
                <stop offset="1" style="stop-color:#ffe6d5" fill="#ffffff"/>
			</linearGradient>
            <path style="fill:url(#SVGID_00000132052336003941806210000002027652356880644268_);" d="M613.565,1511.796l2.168,18.272     c0,0,12.464,5.802,20.976-0.731l-5.162-20.363L613.565,1511.796z"/>

            <linearGradient id="SVGID_00000119104019081049526820000010665113219437817246_" gradientUnits="userSpaceOnUse" x1="685.2891" y1="1159.9387" x2="512.7974" y2="1522.9207" fill="#ffffff">
				<stop offset="0" style="stop-color:#232330" fill="#ffffff"/>
                <stop offset="1" style="stop-color:#232330" fill="#ffffff"/>
			</linearGradient>
            <path style="fill:url(#SVGID_00000119104019081049526820000010665113219437817246_);" d="M615.195,1168.264     c-0.936,4.772-5.026,238.124,19.917,342.698c0.407,1.707-0.458,3.465-2.082,4.129c-3.825,1.563-11.326,3.827-20.314,4.128     c-2.783,0.094-5.279-1.715-6.064-4.388c-7.13-24.262-41.296-145.825-45.753-261.95c-4.981-129.758,0-4.418,0-4.418l2.92-80.209     L615.195,1168.264z"/>

            <linearGradient id="SVGID_00000013899087957713897440000006027120657414242213_" gradientUnits="userSpaceOnUse" x1="-196.1221" y1="1388.9468" x2="-194.2639" y2="1593.327" gradientTransform="matrix(1 0 0 1 738.483 0)" fill="#ffffff">
				<stop offset="0" style="stop-color:#232330" fill="#ffffff"/>
                <stop offset="1" style="stop-color:#232330" fill="#ffffff"/>
			</linearGradient>
            <path style="fill:url(#SVGID_00000013899087957713897440000006027120657414242213_);" d="M533.925,1528.742     c0,0-4.296,7.712-8.454,28.205c-0.751,3.701,1.835,7.243,5.594,7.613c6.65,0.654,16.886,1.495,25.086,1.438     c3.78-0.026,6.73-3.317,6.275-7.07c-0.909-7.48-3.738-19.753-12.479-29.318L533.925,1528.742z"/>

            <linearGradient id="SVGID_00000116206756709351393410000012168094044911889282_" gradientUnits="userSpaceOnUse" x1="-208.3305" y1="1519.5222" x2="-188.3474" y2="1519.5222" gradientTransform="matrix(1 0 0 1 738.483 0)" fill="#ffffff">
				<stop offset="0" style="stop-color:#ffe6d5" fill="#ffffff"/>
                <stop offset="1" style="stop-color:#ffe6d5" fill="#ffffff"/>
			</linearGradient>
            <path style="fill:url(#SVGID_00000116206756709351393410000012168094044911889282_);" d="M530.153,1505.239l5.066,27.634     c0,0,5.009,3.725,14.918,1.025l-2.418-29.732L530.153,1505.239z"/>

            <linearGradient id="SVGID_00000121261102852173787640000010337859603803811478_" gradientUnits="userSpaceOnUse" x1="634.4342" y1="1135.7719" x2="461.9431" y2="1498.7527" fill="#ffffff">
				<stop offset="0" style="stop-color:#232330" fill="#ffffff"/>
                <stop offset="1" style="stop-color:#232330" fill="#ffffff"/>
			</linearGradient>
            <path style="fill:url(#SVGID_00000121261102852173787640000010337859603803811478_);" d="M516.468,1175.424     c-20.401,123.119,4.425,304.299,12.798,339.76c0.513,2.171,2.265,3.835,4.465,4.199c3.737,0.62,9.89,1.125,15.957-0.637     c2.09-0.607,3.558-2.492,3.643-4.667c1.123-28.669-0.899-204.671,18.11-274.228c0.964-3.525,3.116-6.599,6.094-8.717     l36.895-26.229l2.828-42.397L516.468,1175.424z"/>
            <g>
				
					<linearGradient id="SVGID_00000016042660633967663380000005573251449757814962_" gradientUnits="userSpaceOnUse" x1="-427.2921" y1="3260.8181" x2="-670.3171" y2="3569.8496" gradientTransform="matrix(-1 0 0 1 1880.7813 0)" fill="#ffffff">
					<stop offset="0" style="stop-color:#ffffff" fill="#ffffff"/>
                        <stop offset="1" style="stop-color:#ffe6d5" fill="#ffffff"/>
				</linearGradient>
                <path style="fill:url(#SVGID_00000016042660633967663380000005573251449757814962_);" d="M648.707,946.788      c-74.49-7.449-130.841,11.403-130.841,11.403c-18.224,106.334-3.187,228.982-3.187,228.982      c47.33,12.412,100.722-7.589,100.722-7.589c7.866-44.445,40.645-147.072,40.645-147.072c14.936-1.854,28.952,5.69,25.729-15.043      C678.552,996.736,658.09,947.726,648.707,946.788z"/>
			</g>

            <linearGradient id="SVGID_00000139294476402701614720000004336847283263467697_" gradientUnits="userSpaceOnUse" x1="-398.1003" y1="3283.7803" x2="-641.1248" y2="3592.8113" gradientTransform="matrix(-1 0 0 1 1880.7813 0)" fill="#ffffff">
				<stop offset="0" style="stop-color:#ffffff" fill="#ffffff"/>
                <stop offset="1" style="stop-color:#ffe6d5" fill="#ffffff"/>
			</linearGradient>
            <path style="fill:url(#SVGID_00000139294476402701614720000004336847283263467697_);" d="M541.316,1017.389l-23.449-59.198     c0,0-57.105,38.8-66.496,87.995c10.79,0.795,30.424,3.601,49.642,13.305C505.236,1036.262,541.316,1017.389,541.316,1017.389z"/>

            <linearGradient id="SVGID_00000026160016166108831300000008306334738143094972_" gradientUnits="userSpaceOnUse" x1="573.3718" y1="938.9357" x2="544.8732" y2="1024.4315" fill="#ffffff">
				<stop offset="0" style="stop-color:#ffe6d5" fill="#ffffff"/>
                <stop offset="1" style="stop-color:#ffe6d5" fill="#ffffff"/>
			</linearGradient>
            <path style="fill:url(#SVGID_00000026160016166108831300000008306334738143094972_);" d="M596.185,1073.093     c0,0-64.115,36.234-85.748,5.294c-4.491-6.425-5.565-12.81-4.459-18.896c-19.219-9.704-38.852-12.51-49.643-13.305     c-2.832,14.831-1.335,30.604,7.38,46.546c37.894,69.319,140.953-3.831,140.953-3.831L596.185,1073.093z"/>
            <g>
				
					<linearGradient id="SVGID_00000026130951372669465490000005554647279756125361_" gradientUnits="userSpaceOnUse" x1="1255.1621" y1="988.0413" x2="1215.7814" y2="1080.4349" gradientTransform="matrix(-1 0 0 1 1880.7813 0)" fill="#ffffff">
					<stop offset="0" style="stop-color:#232330" fill="#ffffff"/>
                        <stop offset="1" style="stop-color:#232330" fill="#ffffff"/>
				</linearGradient>
                <path style="fill:url(#SVGID_00000026130951372669465490000005554647279756125361_);" d="M607.946,1097.674l21.035-73.458      c0.239-0.834,0.95-1.442,1.812-1.542c3.811-0.445,14.854-1.693,27.605-2.772c15.359-1.299,33.194-2.352,43.852-1.456      c1.515,0.127,2.431,1.73,1.757,3.093c-6.061,12.262-30.991,62.14-43.476,78.479c-0.414,0.542-1.053,0.858-1.734,0.852      l-48.804-0.454C608.572,1100.402,607.555,1099.039,607.946,1097.674z"/>

                <linearGradient id="SVGID_00000163067157006729947560000012510967282367546252_" gradientUnits="userSpaceOnUse" x1="720.0966" y1="829.6095" x2="649.6" y2="987.1019" fill="#ffffff">
					<stop offset="0" style="stop-color:#ffe6d5" fill="#ffffff"/>
                    <stop offset="1" style="stop-color:#ffe6d5" fill="#ffffff"/>
				</linearGradient>
                <path style="fill:url(#SVGID_00000163067157006729947560000012510967282367546252_);" d="M596.936,1089.41      c0,0-4.874-20.043-2.909-27.154c1.966-7.111,5.776-16.253,18.474-14.222c12.698,2.031,27.677,7.381,27.677,7.381      s-0.757,9.262-10.407,6.274l5.984,4.631c0,0-0.856,7.416-9.008,3.454l5.566,6.141c0,0-3.501,6.092-9.498,2.185      C616.819,1074.192,613.943,1091.823,596.936,1089.41z"/>

                <linearGradient id="SVGID_00000152231499671560147870000017821715203023241091_" gradientUnits="userSpaceOnUse" x1="797.1472" y1="878.1051" x2="762.1472" y2="927.105" fill="#ffffff">
					<stop offset="0" style="stop-color:#ffe6d5" fill="#ffffff"/>
                    <stop offset="1" style="stop-color:#ffe6d5" fill="#ffffff"/>
				</linearGradient>
                <path style="fill:url(#SVGID_00000152231499671560147870000017821715203023241091_);" d="M694.868,1058.398      c0,0,14.777-14.392,16.889-21.461c2.112-7.069,3.74-16.839-8.097-21.863c-11.837-5.024-27.37-8.449-27.37-8.449      s-4.279,8.249,5.485,10.844l-7.53,0.744c0,0-3.215,6.738,5.796,7.711l-7.978,2.246c0,0-0.27,7.02,6.887,6.896      C686.107,1034.943,679.176,1051.408,694.868,1058.398z"/>
			</g>

            <linearGradient id="SVGID_00000083777354067110014820000013724917002451689885_" gradientUnits="userSpaceOnUse" x1="611.5214" y1="895.6865" x2="573.5214" y2="1020.6863" fill="#ffffff">
				<stop offset="0" style="stop-color:#ffe6d5" fill="#ffffff"/>
                <stop offset="1" style="stop-color:#ffe6d5" fill="#ffffff"/>
			</linearGradient>
            <path style="fill:url(#SVGID_00000083777354067110014820000013724917002451689885_);" d="M587.24,900.098l-19.452,56.256     c-0.323,0.932,0.06,1.964,0.923,2.441c5.303,2.931,24.407,11.406,47.429-3.191c2.398-1.52,4.031-4,4.395-6.817l6.299-48.69     H587.24z"/>
            <g>
				
					<linearGradient id="SVGID_00000055706082027806040920000006960420478346759306_" gradientUnits="userSpaceOnUse" x1="-4973.1133" y1="875.6274" x2="-4969.1133" y2="787.6276" gradientTransform="matrix(0.9948 -0.1017 0.1017 0.9948 5601.1021 1793.8907)" fill="#ffffff">
					<stop offset="0" style="stop-color:#ffe6d5" fill="#ffffff"/>
                        <stop offset="1" style="stop-color:#ffe6d5" fill="#ffffff"/>
				</linearGradient>
                <path style="fill:url(#SVGID_00000055706082027806040920000006960420478346759306_);" d="M645.326,886.176      c0,0-6.286,45.096-18.031,56.645c-11.745,11.549-32.503-4.924-43.487-29.169l12.384-44.64L645.326,886.176z"/>

                <linearGradient id="SVGID_00000010286808915535455510000007927350146652122778_" gradientUnits="userSpaceOnUse" x1="-4880.1982" y1="-1491.9426" x2="-4861.7051" y2="-1386.464" gradientTransform="matrix(0.9948 -0.1017 0.1017 0.9948 5601.1021 1793.8907)" fill="#ffffff">
					<stop offset="0" style="stop-color:#232330" fill="#ffffff"/>
                    <stop offset="1" style="stop-color:#232330" fill="#ffffff"/>
				</linearGradient>
                <path style="fill:url(#SVGID_00000010286808915535455510000007927350146652122778_);" d="M597.143,896.983      c1.005,0.214,1.96-0.514,2.009-1.54c0.147-3.122,0.678-9.323,2.588-13.705c0,0-1.668-4.245,11.27,1.102      c12.937,5.346,32.346,13.158,42.599,6.277c9.997-6.71,17.81-36.133-9.595-28.028c-1.042,0.308-2.106-0.439-2.137-1.525      c-0.133-4.691-1.69-15.355-12.888-17.684c-10.48-2.179-15.568,2.971-17.575,5.971c-0.591,0.882-1.843,0.994-2.571,0.221      c-3.446-3.659-12.568-11.264-24.176-4.664c-9.562,5.436-10.488,11.763-9.93,15.589c0.181,1.24-0.996,2.213-2.182,1.807      c-3.211-1.099-8.219-1.328-12.338,5.075c-5.695,8.852,4.365,14.995,7.356,16.57c0.49,0.258,0.827,0.734,0.887,1.285      c0.461,4.254,3.022,22.752,13.399,32.274c0.898,0.824,2.36,0.406,2.715-0.76l5.419-17.803c0.252-0.826,1.094-1.324,1.94-1.144      L597.143,896.983z"/>

                <linearGradient id="SVGID_00000016765507337025134740000004434578751074563235_" gradientUnits="userSpaceOnUse" x1="-4996.9102" y1="874.543" x2="-4992.9102" y2="786.5432" gradientTransform="matrix(0.9948 -0.1017 0.1017 0.9948 5601.1021 1793.8907)" fill="#ffffff">
					<stop offset="0" style="stop-color:#ffe6d5" fill="#ffffff"/>
                    <stop offset="1" style="stop-color:#ffe6d5" fill="#ffffff"/>
				</linearGradient>
                <path style="fill:url(#SVGID_00000016765507337025134740000004434578751074563235_);" d="M597.649,900.433      c0,0-6.197-17.373-12.252-10.907c-6.054,6.465,3.627,18.343,11.488,19.991L597.649,900.433z"/>
                <path style="fill:#3d9970;" d="M645.326,887.032c-0.464,0-0.845-0.371-0.855-0.837c-0.011-0.472,0.363-0.863,0.836-0.875      c0.583-0.014,14.282-0.559,14.282-18.584c0-0.473,0.384-0.856,0.857-0.856c0.473,0,0.856,0.384,0.856,0.856      c0,19.738-15.798,20.294-15.958,20.297C645.339,887.032,645.332,887.032,645.326,887.032z"/>
			</g>
		</g>
        <g>
			<g>
				<path style="fill:#3d9970;" d="M1253.102,1154.684c-195.093,0-353.812-158.719-353.812-353.812s158.719-353.813,353.812-353.813      s353.813,158.72,353.813,353.813S1448.195,1154.684,1253.102,1154.684z M1253.102,451.626      c-192.574,0-349.245,156.67-349.245,349.246c0,192.574,156.671,349.245,349.245,349.245      c192.575,0,349.245-156.671,349.245-349.245C1602.347,608.297,1445.677,451.626,1253.102,451.626z"/>
			</g>
            <g>
				<path style="fill:#3d9970;" d="M1253.102,1256.908c-251.459,0-456.036-204.576-456.036-456.036s204.578-456.037,456.036-456.037      c251.46,0,456.037,204.578,456.037,456.037S1504.562,1256.908,1253.102,1256.908z M1253.102,349.402      c-248.941,0-451.469,202.528-451.469,451.47c0,248.941,202.528,451.469,451.469,451.469s451.47-202.528,451.47-451.469      C1704.571,551.93,1502.042,349.402,1253.102,349.402z"/>
			</g>
            <g>
				<path style="fill:#3d9970;" d="M1253.102,1059.07c-142.371,0-258.199-115.828-258.199-258.199      c0-142.372,115.828-258.2,258.199-258.2c142.372,0,258.2,115.828,258.2,258.2      C1511.302,943.242,1395.474,1059.07,1253.102,1059.07z M1253.102,547.24c-139.853,0-253.631,113.779-253.631,253.632      s113.778,253.631,253.631,253.631s253.632-113.778,253.632-253.631S1392.954,547.24,1253.102,547.24z"/>
			</g>
		</g>
        <g>
			
				<ellipse transform="matrix(0.7071 -0.7071 0.7071 0.7071 -198.5494 631.8587)" style="fill:#3d9970;" cx="663.446" cy="555.6" rx="126.866" ry="126.865"/>
            <g>
				
					<linearGradient id="SVGID_00000066490478076692397800000013231487841988581544_" gradientUnits="userSpaceOnUse" x1="585.7653" y1="557.5918" x2="741.1274" y2="557.5918" fill="#ffffff">
					<stop offset="0" style="stop-color:#ffffff" fill="#ffffff"/>
                        <stop offset="1" style="stop-color:#ffffff" fill="#ffffff"/>
				</linearGradient>
                <path style="fill:url(#SVGID_00000066490478076692397800000013231487841988581544_);" d="M663.446,635.273      c-42.834,0-77.681-34.848-77.681-77.681c0-42.833,34.847-77.681,77.681-77.681c42.833,0,77.681,34.848,77.681,77.681      C741.127,600.425,706.28,635.273,663.446,635.273z M663.446,492.928c-35.656,0-64.664,29.008-64.664,64.663      c0,35.656,29.008,64.663,64.664,64.663c35.655,0,64.663-29.008,64.663-64.663C728.11,521.936,699.102,492.928,663.446,492.928z"/>

                <linearGradient id="SVGID_00000010275324218393638010000009608344310604232833_" gradientUnits="userSpaceOnUse" x1="639.1115" y1="559.5837" x2="701.5675" y2="559.5837" fill="#ffffff">
					<stop offset="0" style="stop-color:#ffffff" fill="#ffffff"/>
                    <stop offset="1" style="stop-color:#ffffff" fill="#ffffff"/>
				</linearGradient>
                <path style="fill-rule:evenodd;clip-rule:evenodd;fill:url(#SVGID_00000010275324218393638010000009608344310604232833_);" d="      M639.112,587.507V531.66c0-5.968,6.496-9.666,11.628-6.621l47.058,27.924c5.027,2.983,5.027,10.259,0,13.242l-47.058,27.924      C645.607,597.173,639.112,593.474,639.112,587.507z"/>
			</g>
		</g>
        <g>
			
				<ellipse transform="matrix(0.7071 -0.7071 0.7071 0.7071 132.6124 1470.1077)" style="fill:#3d9970;" cx="1840.883" cy="574.977" rx="126.865" ry="126.866"/>

            <linearGradient id="SVGID_00000154414791327896434460000007197906342762217856_" gradientUnits="userSpaceOnUse" x1="1786.0631" y1="574.6638" x2="1909.4902" y2="574.6638" fill="#ffffff">
				<stop offset="0" style="stop-color:#ffffff" fill="#ffffff"/>
                <stop offset="1" style="stop-color:#ffffff" fill="#ffffff"/>
			</linearGradient>
            <path style="fill:url(#SVGID_00000154414791327896434460000007197906342762217856_);" d="M1862.943,496.078     c-3.521-1.251-7.214,1.391-7.214,5.127v7.654v15.008v74.612c-7.374-6.067-17.669-9.848-29.082-9.848     c-22.414,0-40.583,14.535-40.583,32.467c0,17.931,18.17,32.467,40.583,32.467c22.414,0,40.583-14.536,40.583-32.467     c0-0.156-0.027-0.307-0.029-0.462h0.029v-96.703c16.076,2.436,26.999,14.643,33.393,24.615c2.685,4.187,9.123,2.07,8.86-2.897     C1907.884,515.513,1877.229,501.154,1862.943,496.078z"/>
		</g>
        <g>
			<path style="fill:#3d9970;" d="M1455.089,909.348c0,111.554-90.433,201.987-201.987,201.987l0,0     c-111.554,0-201.987-90.433-201.987-201.987V700.738c0-111.554,90.433-201.987,201.987-201.987l0,0     c111.554,0,201.987,90.433,201.987,201.987V909.348z"/>
            <g>
				<g>
					
						<linearGradient id="SVGID_00000084503651974345023810000003983372134821856921_" gradientUnits="userSpaceOnUse" x1="1143.1444" y1="801.7308" x2="1363.2241" y2="801.7308" fill="#ffffff">
						<stop offset="0" style="stop-color:#ffffff" fill="#ffffff"/>
                            <stop offset="1" style="stop-color:#ffffff" fill="#ffffff"/>
					</linearGradient>
                    <path style="fill:url(#SVGID_00000084503651974345023810000003983372134821856921_);" d="M1252.09,1020.733       c-1.668,0.001-2.279-0.305-3.895-0.933c-5.266-2.049-7.661-7.12-7.661-12.77V830.945l-73.491,70.041       c-5.442,5.26-14.653,5.114-19.913-0.323c-5.261-5.441-5.385-14.116,0.055-19.377l81.085-78.549l-80.939-78.36       c-5.435-5.267-5.605-13.942-0.339-19.377c5.267-5.434,14.998-5.57,20.432-0.306l73.11,69.817V596.433       c0-5.675,2.426-10.763,7.725-12.795c5.297-2.034,10.766-0.587,14.561,3.635l96.953,108.168       c4.929,5.483,4.501,13.884-0.799,19.01l-91.369,88.303l91.278,88.474c5.331,5.165,5.562,13.636,0.544,19.105l-97.23,105.962       C1259.551,1019.18,1255.857,1020.733,1252.09,1020.733z M1267.94,839.226v132.601l64.406-70.196L1267.94,839.226z        M1267.94,632.179v134.134l64.496-62.377L1267.94,632.179z"/>
				</g>
			</g>
		</g>
        <g>
			<g>
				
					<linearGradient id="SVGID_00000067206804077438104060000014593787263720944263_" gradientUnits="userSpaceOnUse" x1="1367.6746" y1="1796.6323" x2="1670.7051" y2="995.5521" fill="#ffffff">
					<stop offset="0" style="stop-color:#232330" fill="#ffffff"/>
                        <stop offset="1" style="stop-color:#232330" fill="#ffffff"/>
				</linearGradient>
                <path style="fill:url(#SVGID_00000067206804077438104060000014593787263720944263_);" d="M1809.506,1548.204      c-98.082,2.078-436.405,8.819-556.296,5.601c-12.701-0.341-22.896-9.045-23.312-19.902      c-2.055-53.698-7.266-250.55-2.955-338.382c0.898-18.294,18.233-32.842,39.649-33.222c102.95-1.825,392.509-5.852,525.156,3.719      c15.893,1.147,28.549,11.81,30.137,25.376c6.844,58.479,23.573,256.178,17.812,332.06      C1838.658,1537.14,1825.544,1547.864,1809.506,1548.204z"/>

                <linearGradient id="SVGID_00000163055544383467046280000015811409222112596897_" gradientUnits="userSpaceOnUse" x1="-8242.6846" y1="-2765.5203" x2="-9055.7705" y2="-1725.3824" gradientTransform="matrix(0 -1 -1 0 -1075.5039 -6987.314)" fill="#ffffff">
					<stop offset="0" style="stop-color:#ffffff" fill="#ffffff"/>
                    <stop offset="1" style="stop-color:#ffe6d5" fill="#ffffff"/>
				</linearGradient>
                <path style="fill:url(#SVGID_00000163055544383467046280000015811409222112596897_);" d="M1779.414,1524.244      c-79.167,2.891-342.537,12.007-439.926,9.114c-14.235-0.423-25.745-10.013-26.577-22.167      c-3.426-50.044-10.98-220.78-4.104-294.182c1.238-13.217,13.743-23.589,29.232-24.302c80.767-3.719,326.001-14.4,422.298-11.626      c15.362,0.443,27.908,10.615,29.282,23.701c5.687,54.139,19.217,235.566,15.236,297.941      C1804.109,1514.431,1793.119,1523.744,1779.414,1524.244z"/>

                <linearGradient id="SVGID_00000101085616509112253360000018234130317169270171_" gradientUnits="userSpaceOnUse" x1="1992.0051" y1="917.1177" x2="1908.005" y2="1143.1177" fill="#ffffff">
					<stop offset="0" style="stop-color:#232330" fill="#ffffff"/>
                    <stop offset="1" style="stop-color:#232330" fill="#ffffff"/>
				</linearGradient>
                <path style="fill:url(#SVGID_00000101085616509112253360000018234130317169270171_);" d="M1822.559,1415.495L1822.559,1415.495      c-3.01,0-5.492-2.005-5.649-4.574c-0.777-12.683-2.976-48.411-4.059-64.379c-0.214-3.148,3.097-5.619,6.719-5.022l0.618,0.102      c2.472,0.408,4.332,2.16,4.562,4.303c1.157,10.793,4.365,43.361,3.464,64.94      C1828.105,1413.456,1825.593,1415.495,1822.559,1415.495z"/>
			</g>
            <g>
				
					<linearGradient id="SVGID_00000076600601355523422980000010972059252402596025_" gradientUnits="userSpaceOnUse" x1="1794.8402" y1="750.7117" x2="1494.8096" y2="1521.7892" fill="#ffffff">
					<stop offset="0" style="stop-color:#2196f3" fill="#ffffff"/>
                        <stop offset="1" style="stop-color:#2196f3" fill="#ffffff"/>
				</linearGradient>
                <path style="fill:url(#SVGID_00000076600601355523422980000010972059252402596025_);" d="M1634.285,1404.218      c0,43.104-34.943,78.046-78.046,78.046l0,0c-43.104,0-78.046-34.942-78.046-78.046v-80.605      c0-43.104,34.943-78.046,78.046-78.046l0,0c43.104,0,78.046,34.943,78.046,78.046V1404.218z"/>
                <g style="opacity:0.87;">
					<g>
						<path style="fill:#ffffff;" d="M1555.848,1447.256c-0.645,0-1.004-0.118-1.628-0.361c-2.035-0.792-3.084-2.751-3.084-4.934        v-68.038l-28.273,27.063c-2.103,2.032-5.6,1.976-7.632-0.125c-2.033-2.102-2.049-5.454,0.052-7.487l31.346-30.351        l-31.266-30.278c-2.1-2.035-2.162-5.387-0.127-7.487c2.035-2.1,5.673-2.152,7.773-0.118l28.127,26.976v-68.807        c0-2.193,1.061-4.159,3.109-4.944c2.047-0.786,4.222-0.227,5.688,1.405l37.493,41.795c1.904,2.119,1.755,5.365-0.293,7.345        l-35.297,34.119l35.273,34.186c2.06,1.996,2.151,5.269,0.212,7.382l-37.568,40.943        C1558.73,1446.656,1557.303,1447.256,1555.848,1447.256z M1562.555,1377.123v51.236l24.886-27.123L1562.555,1377.123z         M1562.555,1297.122v51.828l24.921-24.102L1562.555,1297.122z"/>
					</g>
				</g>
			</g>
		</g>
        <g>
			<g>
				
					<linearGradient id="SVGID_00000026121970706293738110000015963731127301497531_" gradientUnits="userSpaceOnUse" x1="879.6807" y1="1638.4219" x2="912.6838" y2="996.3586" fill="#ffffff">
					<stop offset="0" style="stop-color:#232330" fill="#ffffff"/>
                        <stop offset="1" style="stop-color:#232330" fill="#ffffff"/>
				</linearGradient>
                <path style="fill:url(#SVGID_00000026121970706293738110000015963731127301497531_);" d="M795.207,1241.339      c-1.053,49.719-4.47,221.218-2.839,281.992c0.173,6.439,4.584,11.606,10.088,11.817c27.22,1.042,127.006,3.683,171.529,1.498      c9.273-0.455,16.648-9.243,16.84-20.098c0.925-52.186,2.966-198.967-1.885-266.207c-0.581-8.056-5.987-14.472-12.863-15.277      c-29.644-3.469-129.859-11.949-168.324-9.029C800.815,1226.562,795.379,1233.209,795.207,1241.339z"/>

                <linearGradient id="SVGID_00000095330012870015392400000000625612545301801904_" gradientUnits="userSpaceOnUse" x1="943.6467" y1="1301.9099" x2="531.4858" y2="1829.1652" fill="#ffffff">
					<stop offset="0" style="stop-color:#ffffff" fill="#ffffff"/>
                    <stop offset="1" style="stop-color:#ffe6d5" fill="#ffffff"/>
				</linearGradient>
                <path style="fill:url(#SVGID_00000095330012870015392400000000625612545301801904_);" d="M807.352,1256.594      c-1.465,40.13-6.086,173.635-4.62,223.002c0.214,7.216,5.076,13.05,11.237,13.472c25.367,1.737,111.915,5.566,149.123,2.081      c6.7-0.628,11.957-6.966,12.319-14.818c1.885-40.941,7.299-165.253,5.893-214.067c-0.224-7.787-5.38-14.147-12.014-14.843      c-27.444-2.883-119.411-9.741-151.029-7.723C812.327,1244.075,807.606,1249.646,807.352,1256.594z"/>

                <linearGradient id="SVGID_00000015314852914224609250000000151616640031884427_" gradientUnits="userSpaceOnUse" x1="941.4676" y1="1056.8699" x2="907.4675" y2="1157.87" fill="#ffffff">
					<stop offset="0" style="stop-color:#232330" fill="#ffffff"/>
                    <stop offset="1" style="stop-color:#232330" fill="#ffffff"/>
				</linearGradient>
                <path style="fill:url(#SVGID_00000015314852914224609250000000151616640031884427_);" d="M862.478,1234.723L862.478,1234.723      c0,1.526,1.016,2.784,2.319,2.864c6.429,0.394,24.54,1.508,32.634,2.058c1.596,0.108,2.849-1.57,2.546-3.406l-0.052-0.314      c-0.206-1.253-1.095-2.196-2.181-2.312c-5.471-0.587-21.98-2.213-32.918-1.756      C863.511,1231.911,862.478,1233.185,862.478,1234.723z"/>
			</g>
            <g>
				
					<linearGradient id="SVGID_00000075853832078614653120000001331013349751152523_" gradientUnits="userSpaceOnUse" x1="838.7183" y1="1381.5723" x2="933.7573" y2="1381.5723" fill="#ffffff">
					<stop offset="0" style="stop-color:#2196f3" fill="#ffffff"/>
                        <stop offset="1" style="stop-color:#2196f3" fill="#ffffff"/>
				</linearGradient>
                <path style="fill:url(#SVGID_00000075853832078614653120000001331013349751152523_);" d="M933.757,1406.111      c0,26.244-21.275,47.52-47.52,47.52l0,0c-26.244,0-47.519-21.275-47.519-47.52v-49.077c0-26.244,21.275-47.52,47.519-47.52l0,0      c26.244,0,47.52,21.275,47.52,47.52V1406.111z"/>
                <g style="opacity:0.81;">
					<g>
						<path style="fill:#ffffff;" d="M886,1432.316c-0.392,0-0.049-0.072-0.429-0.22c-1.239-0.482-1.315-1.675-1.315-3.004v-41.426        l-17.777,16.478c-1.28,1.237-3.691,1.203-4.928-0.076c-1.238-1.28-1.388-3.321-0.109-4.558l19.015-18.48l-19.072-18.435        c-1.279-1.239-1.334-3.28-0.095-4.559c1.239-1.278,4.008-1.31,5.286-0.072l17.679,16.425v-41.894        c0-1.335,0.084-2.532,1.33-3.01c1.246-0.478,2.289-0.138,3.182,0.855l22.688,25.448c1.16,1.29,0.998,3.266-0.249,4.472        l-21.526,20.774l21.459,20.814c1.254,1.215,1.301,3.208,0.12,4.495l-22.878,24.929        C887.759,1431.95,886.886,1432.316,886,1432.316z M891.107,1389.614v31.196l15.152-16.514L891.107,1389.614z         M891.107,1340.904v31.557l15.173-14.675L891.107,1340.904z"/>
					</g>
				</g>
			</g>
		</g>
        <g>
			
				<ellipse transform="matrix(0.7071 -0.7071 0.7071 0.7071 -190.9746 1472.8231)" style="fill:#3d9970;" cx="1682.367" cy="966.938" rx="126.866" ry="126.866"/>
            <g>
				
					<linearGradient id="SVGID_00000016072333255713069440000016894518782536434365_" gradientUnits="userSpaceOnUse" x1="1592.2533" y1="967.0001" x2="1680.4086" y2="967.0001" fill="#ffffff">
					<stop offset="0" style="stop-color:#ffffff" fill="#ffffff"/>
                        <stop offset="1" style="stop-color:#ffffff" fill="#ffffff"/>
				</linearGradient>
                <path style="opacity:0.76;fill:url(#SVGID_00000016072333255713069440000016894518782536434365_);" d="M1680.409,1039.753      c-29.385-15.241-58.77-15.24-88.155,0V905.153c29.385-14.541,58.77-14.541,88.155,0V1039.753z"/>

                <linearGradient id="SVGID_00000054260460733515203390000001849879324306841275_" gradientUnits="userSpaceOnUse" x1="1684.3265" y1="967.0001" x2="1772.4814" y2="967.0001" fill="#ffffff">
					<stop offset="0" style="stop-color:#ffffff" fill="#ffffff"/>
                    <stop offset="1" style="stop-color:#ffffff" fill="#ffffff"/>
				</linearGradient>
                <path style="opacity:0.76;fill:url(#SVGID_00000054260460733515203390000001849879324306841275_);" d="M1684.327,1039.753      c29.385-15.241,58.77-15.24,88.155,0V905.153c-29.385-14.541-58.77-14.541-88.155,0V1039.753z"/>
			</g>
		</g>
        <g>
			<g>
				
					<ellipse transform="matrix(0.7071 -0.7071 0.7071 0.7071 -442.4323 865.7503)" style="fill:#3d9970;" cx="823.837" cy="966.938" rx="126.866" ry="126.866"/>
			</g>
            <g>
				<g>
					
						<linearGradient id="SVGID_00000165226398594142839100000007474422930556966042_" gradientUnits="userSpaceOnUse" x1="740.3733" y1="968.0369" x2="907.0935" y2="968.0369" fill="#ffffff">
						<stop offset="0" style="stop-color:#ffffff" fill="#ffffff"/>
                            <stop offset="1" style="stop-color:#ffffff" fill="#ffffff"/>
					</linearGradient>
                    <path style="fill:url(#SVGID_00000165226398594142839100000007474422930556966042_);" d="M907.094,1033.126       c0,2.523-2.045,4.568-4.568,4.568H744.941c-2.523,0-4.568-2.045-4.568-4.568V902.948c0-2.523,2.045-4.568,4.568-4.568h157.585       c2.523,0,4.568,2.045,4.568,4.568V1033.126z M749.509,1028.559h148.45V907.515h-148.45V1028.559z"/>
				</g>
                <g>
					
						<linearGradient id="SVGID_00000121971872285823045820000010097271304152059045_" gradientUnits="userSpaceOnUse" x1="744.9409" y1="988.4102" x2="902.5258" y2="988.4102" fill="#ffffff">
						<stop offset="0" style="stop-color:#ffffff" fill="#ffffff"/>
                            <stop offset="1" style="stop-color:#ffffff" fill="#ffffff"/>
					</linearGradient>
                    <path style="fill:url(#SVGID_00000121971872285823045820000010097271304152059045_);" d="M865.536,946.29       c-1.253-1.625-3.159-2.583-5.211-2.596c-2.052-0.013-3.983,0.919-5.257,2.528l-33.596,42.446       c-1.157,1.461-2.869,2.371-4.727,2.51c-1.858,0.139-3.688-0.506-5.049-1.779l-25.63-23.977       c-2.533-2.37-6.511-2.401-9.081-0.071l-32.045,28.994v38.782h157.585v-38.782L865.536,946.29z"/>
				</g>
                <g>
					
						<linearGradient id="SVGID_00000152240594875012901560000009837481396894471571_" gradientUnits="userSpaceOnUse" x1="771.6893" y1="932.4903" x2="804.0437" y2="932.4903" fill="#ffffff">
						<stop offset="0" style="stop-color:#ffffff" fill="#ffffff"/>
                            <stop offset="1" style="stop-color:#ffffff" fill="#ffffff"/>
					</linearGradient>
                    <circle style="fill:url(#SVGID_00000152240594875012901560000009837481396894471571_);" cx="787.867" cy="932.49" r="16.177"/>
				</g>
			</g>
		</g>
        <g>
			
				<linearGradient id="SVGID_00000011026661754051867010000001917888818394228122_" gradientUnits="userSpaceOnUse" x1="680.7978" y1="963.3175" x2="689.4511" y2="963.3175" fill="#ffffff">
				<stop offset="0" style="stop-color:#ffffff" fill="#ffffff"/>
                    <stop offset="1" style="stop-color:#ffffff" fill="#ffffff"/>
			</linearGradient>
            <path style="fill:url(#SVGID_00000011026661754051867010000001917888818394228122_);" d="M683.08,969.032     c-0.359,0-0.725-0.085-1.065-0.265c-1.115-0.589-1.541-1.969-0.952-3.084c0.057-0.107,1.417-2.674,4.176-7.019     c0.676-1.064,2.088-1.379,3.153-0.704c1.065,0.677,1.379,2.088,0.704,3.153c-2.65,4.173-3.981,6.679-3.993,6.703     C684.691,968.59,683.899,969.032,683.08,969.032z"/>

            <linearGradient id="SVGID_00000086694027435003684090000010837672896515840905_" gradientUnits="userSpaceOnUse" x1="694.0609" y1="991.1625" x2="1811.7758" y2="991.1625" fill="#ffffff">
				<stop offset="0" style="stop-color:#ffffff" fill="#ffffff"/>
                <stop offset="1" style="stop-color:#ffffff" fill="#ffffff"/>
			</linearGradient>
            <path style="fill:url(#SVGID_00000086694027435003684090000010837672896515840905_);" d="M1682.231,1129.273     c-1.536,0-3.079-0.009-4.631-0.027c-1.261-0.015-2.272-1.049-2.257-2.311c0.015-1.262,1.13-2.324,2.311-2.257     c5.424,0.063,10.799,0.012,16.002-0.153c1.24-0.059,2.315,0.949,2.355,2.21c0.04,1.26-0.949,2.315-2.21,2.355     C1690.022,1129.212,1686.13,1129.273,1682.231,1129.273z M1661.533,1128.744c-0.039,0-0.077-0.001-0.115-0.002     c-5.251-0.261-10.684-0.621-16.147-1.071c-1.257-0.104-2.192-1.207-2.089-2.463c0.103-1.257,1.204-2.208,2.463-2.089     c5.414,0.446,10.797,0.802,15.998,1.061c1.26,0.061,2.23,1.134,2.168,2.393     C1663.751,1127.795,1662.742,1128.744,1661.533,1128.744z M1709.8,1128.17c-1.175,0-2.173-0.9-2.274-2.092     c-0.106-1.257,0.827-2.362,2.084-2.468c5.444-0.459,10.778-1.072,15.853-1.821c1.243-0.184,2.41,0.678,2.593,1.926     c0.184,1.248-0.678,2.409-1.926,2.593c-5.168,0.763-10.597,1.387-16.136,1.854C1709.93,1128.168,1709.864,1128.17,1709.8,1128.17     z M1629.428,1126.125c-0.085,0-0.17-0.005-0.255-0.015c-5.206-0.578-10.604-1.249-16.044-1.993     c-1.249-0.171-2.123-1.323-1.953-2.573c0.169-1.249,1.31-2.13,2.573-1.953c5.401,0.74,10.76,1.405,15.928,1.979     c1.254,0.138,2.157,1.268,2.017,2.521C1631.564,1125.26,1630.575,1126.125,1629.428,1126.125z M1741.624,1123.396     c-1.043,0-1.985-0.718-2.225-1.779c-0.279-1.23,0.492-2.453,1.722-2.732c5.328-1.209,10.48-2.625,15.311-4.212     c1.204-0.393,2.49,0.262,2.883,1.458c0.394,1.199-0.26,2.489-1.458,2.883c-4.967,1.63-10.258,3.086-15.726,4.326     C1741.96,1123.378,1741.791,1123.396,1741.624,1123.396z M1597.507,1121.769c-0.12,0-0.242-0.009-0.365-0.029     c-5.222-0.835-10.582-1.751-15.927-2.72c-1.241-0.225-2.065-1.413-1.84-2.654c0.224-1.241,1.414-2.073,2.654-1.84     c5.315,0.964,10.643,1.873,15.835,2.704c1.245,0.2,2.093,1.371,1.894,2.616     C1599.579,1120.969,1598.609,1121.769,1597.507,1121.769z M1565.8,1116.035c-0.148,0-0.3-0.015-0.45-0.045     c-5.227-1.047-10.496-2.152-15.807-3.311c-1.232-0.269-2.013-1.487-1.744-2.719c0.269-1.232,1.478-2.007,2.719-1.744     c5.285,1.154,10.529,2.253,15.729,3.295c1.238,0.248,2.038,1.451,1.791,2.689     C1567.82,1115.285,1566.866,1116.035,1565.8,1116.035z M1772.123,1113.251c-0.861,0-1.686-0.49-2.073-1.323     c-0.531-1.143-0.033-2.501,1.111-3.033c4.913-2.282,9.551-4.844,13.786-7.617c1.057-0.691,2.471-0.395,3.161,0.659     c0.691,1.055,0.396,2.47-0.659,3.161c-4.418,2.894-9.251,5.565-14.365,7.939     C1772.772,1113.183,1772.445,1113.251,1772.123,1113.251z M1534.318,1109.17c-0.173,0-0.348-0.019-0.524-0.06     c-5.195-1.219-10.426-2.489-15.688-3.805c-1.223-0.307-1.967-1.547-1.661-2.77c0.307-1.222,1.541-1.974,2.77-1.662     c5.24,1.312,10.45,2.575,15.623,3.789c1.228,0.289,1.99,1.518,1.702,2.746C1536.292,1108.461,1535.354,1109.17,1534.318,1109.17z      M1503.061,1101.358c-0.193,0-0.389-0.026-0.585-0.077c-5.167-1.367-10.359-2.778-15.577-4.229     c-1.215-0.338-1.926-1.597-1.588-2.812c0.338-1.216,1.595-1.926,2.813-1.588c5.198,1.446,10.372,2.85,15.521,4.213     c1.219,0.322,1.946,1.573,1.624,2.792C1504.996,1100.681,1504.072,1101.358,1503.061,1101.358z M1798.857,1095.567     c-0.609,0-1.218-0.243-1.667-0.723c-0.862-0.921-0.814-2.366,0.106-3.228c3.838-3.593,7.32-7.535,10.346-11.715     c0.742-1.02,2.169-1.25,3.189-0.511c1.021,0.74,1.25,2.168,0.511,3.189c-3.198,4.416-6.874,8.578-10.924,12.37     C1799.977,1095.363,1799.417,1095.567,1798.857,1095.567z M1472.016,1092.727c-0.212,0-0.426-0.03-0.64-0.093     c-5.135-1.495-10.292-3.028-15.466-4.597c-1.208-0.366-1.889-1.641-1.523-2.848c0.367-1.209,1.647-1.889,2.848-1.523     c5.159,1.565,10.3,3.092,15.419,4.583c1.211,0.352,1.907,1.62,1.553,2.831     C1473.917,1092.078,1473.005,1092.727,1472.016,1092.727z M1441.182,1083.381c-0.227,0-0.459-0.035-0.688-0.107     c-5.106-1.609-10.228-3.251-15.362-4.924c-1.199-0.391-1.854-1.681-1.463-2.879c0.391-1.198,1.681-1.854,2.879-1.463     c5.119,1.669,10.227,3.306,15.32,4.911c1.202,0.379,1.87,1.662,1.491,2.865     C1443.052,1082.757,1442.152,1083.381,1441.182,1083.381z M1410.547,1073.391c-0.242,0-0.487-0.039-0.729-0.12     c-5.079-1.711-10.168-3.451-15.264-5.221c-1.191-0.414-1.822-1.715-1.409-2.907c0.414-1.191,1.714-1.821,2.907-1.408     c5.083,1.765,10.158,3.502,15.224,5.208c1.195,0.403,1.838,1.698,1.435,2.894     C1412.391,1072.789,1411.501,1073.391,1410.547,1073.391z M1380.108,1062.824c-0.255,0-0.515-0.043-0.768-0.135     c-5.051-1.804-10.107-3.635-15.166-5.492c-1.183-0.435-1.791-1.747-1.357-2.932c0.435-1.185,1.751-1.791,2.932-1.357     c5.046,1.852,10.091,3.679,15.128,5.481c1.189,0.424,1.806,1.731,1.382,2.918     C1381.925,1062.242,1381.046,1062.824,1380.108,1062.824z M1349.859,1051.724c-0.268,0-0.54-0.048-0.805-0.147     c-5.024-1.893-10.047-3.808-15.07-5.746c-1.177-0.454-1.763-1.776-1.309-2.953s1.779-1.757,2.953-1.309     c5.011,1.934,10.024,3.845,15.037,5.734c1.18,0.444,1.776,1.761,1.333,2.942     C1351.651,1051.16,1350.783,1051.724,1349.859,1051.724z M1319.76,1040.109c-0.279,0-0.562-0.052-0.838-0.161     c-5.006-1.977-10.007-3.976-15.002-5.994c-1.17-0.473-1.735-1.804-1.262-2.973c0.473-1.17,1.802-1.733,2.973-1.262     c4.984,2.014,9.974,4.008,14.969,5.981c1.173,0.464,1.749,1.79,1.286,2.963C1321.531,1039.561,1320.67,1040.109,1319.76,1040.109     z M1289.848,1028.025c-0.29,0-0.585-0.056-0.871-0.174c-4.97-2.053-9.933-4.124-14.884-6.211     c-1.162-0.49-1.707-1.829-1.217-2.992c0.491-1.161,1.829-1.711,2.992-1.217c4.94,2.083,9.891,4.15,14.853,6.198     c1.165,0.482,1.721,1.817,1.239,2.983C1291.597,1027.491,1290.746,1028.025,1289.848,1028.025z M1260.171,1015.511     c-0.301,0-0.608-0.06-0.902-0.187c-4.937-2.125-9.859-4.266-14.767-6.421c-1.154-0.507-1.679-1.854-1.172-3.01     c0.507-1.154,1.857-1.679,3.01-1.172c4.897,2.151,9.81,4.287,14.736,6.408c1.159,0.498,1.693,1.842,1.194,3.001     C1261.897,1014.994,1261.055,1015.511,1260.171,1015.511z M1230.727,1002.579c-0.312,0-0.629-0.063-0.932-0.2     c-4.917-2.201-9.816-4.417-14.696-6.645c-1.147-0.524-1.653-1.879-1.129-3.026c0.523-1.149,1.88-1.653,3.027-1.129     c4.869,2.224,9.759,4.435,14.664,6.632c1.151,0.515,1.666,1.867,1.151,3.018     C1232.433,1002.076,1231.599,1002.579,1230.727,1002.579z M1201.417,989.195c-0.323,0-0.651-0.068-0.962-0.213     c-4.889-2.275-9.754-4.562-14.596-6.859c-1.14-0.54-1.625-1.902-1.084-3.042c0.54-1.139,1.898-1.626,3.042-1.084     c4.831,2.291,9.687,4.573,14.565,6.844c1.144,0.533,1.639,1.891,1.107,3.034C1203.101,988.706,1202.276,989.195,1201.417,989.195     z M1172.304,975.385c-0.335,0-0.672-0.073-0.994-0.227c-4.859-2.351-9.692-4.709-14.493-7.076     c-1.132-0.558-1.597-1.927-1.039-3.059c0.558-1.132,1.927-1.597,3.058-1.038c4.792,2.362,9.614,4.716,14.464,7.06     c1.135,0.55,1.61,1.915,1.062,3.051C1173.967,974.911,1173.152,975.385,1172.304,975.385z M1143.399,961.14     c-0.345,0-0.694-0.078-1.023-0.243c-4.83-2.425-9.626-4.859-14.384-7.295c-1.123-0.575-1.567-1.951-0.992-3.073     c0.574-1.123,1.948-1.569,3.074-0.992c4.748,2.432,9.534,4.859,14.352,7.28c1.127,0.566,1.582,1.939,1.016,3.066     C1145.042,960.679,1144.236,961.14,1143.399,961.14z M696.342,948.951c-0.477,0-0.958-0.149-1.369-0.458     c-1.008-0.757-1.212-2.189-0.454-3.197c3.214-4.279,6.65-8.54,10.211-12.665c0.824-0.953,2.264-1.059,3.222-0.235     c0.955,0.824,1.059,2.267,0.235,3.222c-3.494,4.046-6.865,8.225-10.017,12.422C697.722,948.636,697.037,948.951,696.342,948.951z      M1114.721,946.45c-0.356,0-0.717-0.084-1.055-0.26c-4.798-2.506-9.555-5.016-14.267-7.527c-1.113-0.592-1.534-1.976-0.941-3.089     c0.593-1.112,1.975-1.533,3.089-0.942c4.702,2.506,9.447,5.009,14.234,7.511c1.119,0.583,1.551,1.964,0.967,3.081     C1116.34,946.004,1115.545,946.45,1114.721,946.45z M1086.283,931.292c-0.368,0-0.743-0.089-1.089-0.278     c-4.764-2.59-9.478-5.182-14.137-7.773c-1.103-0.613-1.5-2.004-0.887-3.106c0.611-1.103,2.003-1.5,3.106-0.886     c4.648,2.584,9.348,5.169,14.099,7.753c1.109,0.602,1.519,1.99,0.916,3.097C1087.878,930.861,1087.093,931.292,1086.283,931.292z      M717.385,924.568c-0.579,0-1.159-0.219-1.604-0.658c-0.898-0.885-0.908-2.331-0.022-3.229c3.8-3.855,7.768-7.621,11.794-11.193     c0.943-0.839,2.385-0.75,3.224,0.193c0.838,0.943,0.75,2.386-0.193,3.224c-3.949,3.505-7.843,7.199-11.573,10.983     C718.565,924.341,717.975,924.568,717.385,924.568z M1058.12,915.636c-0.383,0-0.769-0.096-1.126-0.298     c-2.355-1.338-4.694-2.675-7.016-4.011c-2.335-1.343-4.658-2.655-6.969-3.94c-1.102-0.613-1.499-2.004-0.885-3.107     c0.616-1.102,2.004-1.495,3.107-0.885c2.328,1.296,4.669,2.62,7.024,3.972c2.316,1.333,4.648,2.665,6.995,3.999     c1.097,0.623,1.481,2.017,0.859,3.115C1059.688,915.221,1058.915,915.636,1058.12,915.636z M741.474,903.21     c-0.684,0-1.359-0.306-1.809-0.889c-0.771-0.998-0.586-2.432,0.413-3.203c4.294-3.314,8.741-6.503,13.217-9.479     c1.053-0.696,2.469-0.411,3.167,0.638c0.698,1.05,0.413,2.468-0.638,3.167c-4.387,2.916-8.746,6.041-12.956,9.289     C742.453,903.055,741.961,903.21,741.474,903.21z M1029.931,900.06c-0.353,0-0.711-0.081-1.047-0.255     c-4.781-2.472-9.609-4.872-14.352-7.13c-1.138-0.542-1.621-1.905-1.079-3.044c0.543-1.14,1.907-1.619,3.044-1.08     c4.786,2.281,9.661,4.702,14.486,7.197c1.121,0.58,1.559,1.957,0.979,3.078C1031.556,899.611,1030.759,900.06,1029.931,900.06z      M1000.858,886.229c-0.303,0-0.612-0.061-0.908-0.19c-4.948-2.147-9.931-4.196-14.807-6.093     c-1.175-0.457-1.759-1.781-1.301-2.956c0.457-1.177,1.782-1.761,2.956-1.301c4.931,1.918,9.968,3.991,14.97,6.16     c1.157,0.502,1.688,1.847,1.187,3.004C1002.581,885.714,1001.74,886.229,1000.858,886.229z M768.283,885.406     c-0.797,0-1.571-0.418-1.992-1.162c-0.619-1.098-0.232-2.491,0.868-3.111c4.72-2.663,9.583-5.174,14.453-7.464     c1.139-0.539,2.501-0.047,3.038,1.095c0.537,1.141,0.047,2.501-1.095,3.038c-4.767,2.241-9.529,4.701-14.152,7.31     C769.048,885.311,768.664,885.406,768.283,885.406z M970.848,874.575c-0.245,0-0.494-0.04-0.739-0.124     c-5.078-1.737-10.208-3.365-15.246-4.838c-1.21-0.355-1.905-1.623-1.551-2.834c0.356-1.209,1.621-1.901,2.834-1.551     c5.103,1.492,10.298,3.14,15.443,4.9c1.193,0.408,1.83,1.707,1.422,2.901C972.685,873.977,971.798,874.575,970.848,874.575z      M797.402,871.73c-0.92,0-1.788-0.561-2.134-1.473c-0.448-1.179,0.143-2.498,1.323-2.946c5.053-1.923,10.239-3.673,15.415-5.204     c1.214-0.354,2.481,0.333,2.838,1.542c0.358,1.21-0.333,2.48-1.542,2.838c-5.066,1.498-10.141,3.212-15.087,5.093     C797.948,871.681,797.672,871.73,797.402,871.73z M939.95,865.559c-0.177,0-0.356-0.02-0.535-0.064     c-5.231-1.256-10.489-2.376-15.629-3.328c-1.24-0.23-2.06-1.422-1.83-2.662c0.23-1.24,1.417-2.054,2.662-1.83     c5.218,0.967,10.555,2.103,15.863,3.379c1.227,0.294,1.983,1.527,1.687,2.753C941.918,864.855,940.982,865.559,939.95,865.559z      M828.244,862.599c-1.053,0-2-0.732-2.23-1.802c-0.265-1.233,0.518-2.449,1.751-2.714c5.266-1.135,10.653-2.089,16.014-2.834     c1.245-0.185,2.402,0.697,2.577,1.947c0.173,1.249-0.699,2.403-1.948,2.577c-5.249,0.729-10.524,1.663-15.679,2.775     C828.565,862.582,828.404,862.599,828.244,862.599z M908.3,859.716c-0.097,0-0.194-0.006-0.291-0.018     c-5.313-0.676-10.657-1.193-15.886-1.538c-1.259-0.084-2.211-1.171-2.129-2.43c0.084-1.258,1.161-2.215,2.43-2.129     c5.32,0.352,10.758,0.879,16.161,1.564c1.251,0.16,2.137,1.302,1.978,2.554C910.416,858.874,909.433,859.716,908.3,859.716z      M860.096,858.146c-1.192,0-2.196-0.924-2.276-2.131c-0.085-1.258,0.867-2.347,2.125-2.431c5.25-0.353,10.617-0.532,15.953-0.532     h0.284c1.261,0,2.284,1.023,2.284,2.284c0,1.261-1.023,2.284-2.284,2.284h-0.284c-5.234,0-10.499,0.175-15.648,0.521     C860.2,858.144,860.148,858.146,860.096,858.146z"/>

            <linearGradient id="SVGID_00000022524514751810533640000014359701820859202457_" gradientUnits="userSpaceOnUse" x1="1815.2823" y1="1063.7732" x2="1822.89" y2="1063.7732" fill="#ffffff">
				<stop offset="0" style="stop-color:#ffffff" fill="#ffffff"/>
                <stop offset="1" style="stop-color:#ffffff" fill="#ffffff"/>
			</linearGradient>
            <path style="fill:url(#SVGID_00000022524514751810533640000014359701820859202457_);" d="M1817.566,1069.75     c-0.323,0-0.65-0.068-0.962-0.213c-1.143-0.532-1.639-1.89-1.107-3.034c1.085-2.332,2.081-4.753,2.961-7.197     c0.428-1.185,1.737-1.8,2.923-1.375c1.187,0.427,1.802,1.736,1.375,2.923c-0.927,2.572-1.975,5.121-3.117,7.576     C1819.251,1069.262,1818.427,1069.75,1817.566,1069.75z"/>
		</g>
        <g>
			
				<linearGradient id="SVGID_00000027606408387660944690000012265300046019463825_" gradientUnits="userSpaceOnUse" x1="1861.9139" y1="739.2318" x2="1917.729" y2="878.1999" fill="#ffffff">
				<stop offset="0" style="stop-color:#232330" fill="#ffffff"/>
                    <stop offset="1" style="stop-color:#232330" fill="#ffffff"/>
			</linearGradient>
            <path style="fill:url(#SVGID_00000027606408387660944690000012265300046019463825_);" d="M2068.154,1063.499     c-8.527-14.205-10.736-26.948-8.216-43.422c4.16-27.195,0.919-57.481-16.411-79.861c-16.439-21.23-46.03-23.126-64.086-42.068     c-0.125-0.131-0.542-0.749-1.146-1.701c-4.563-7.187-7.065-15.361-7.347-23.87c-1.764-53.302-40.537-52.68-58.932-42.567     c-29.125,16.011-22.731,45.889-22.731,45.889c8.126,8.689,37.15-9.83,37.15-9.83l12.064,19.367     c-3.42,1.487-7.094,3.167-11.091,5.127c-27.335,13.403-30.262,118.114-14.867,134.862c15.394,16.748,18.102,32.735,2.573,60.14     c-15.529,27.404-6.548,63.188,76.075,92.878c13.382,4.809,33.53,5.327,46.748-0.036c28.993-11.761,44.941-46.241,45.725-75.949     C2084.059,1087.379,2075.542,1075.808,2068.154,1063.499z"/>
            <path style="fill:#3d9970;" d="M2046.737,1029.479c-0.018,0-0.035-0.001-0.052-0.002c-0.313-0.028-0.545-0.306-0.517-0.62     c3.373-37.586-8.106-62.315-18.33-76.44c-11.155-15.413-25.713-24.861-34.518-27.118c-15.695-4.023-22.98-22.404-23.051-22.589     c-0.115-0.294,0.031-0.625,0.326-0.738c0.292-0.113,0.626,0.031,0.738,0.326c0.07,0.18,7.15,18.02,22.271,21.895     c19.324,4.953,59.675,38.211,53.703,104.767C2047.278,1029.256,2047.029,1029.479,2046.737,1029.479z"/>
            <path style="fill:#3d9970;" d="M2033.25,1162.468c-0.229,0-0.444-0.138-0.532-0.365c-0.115-0.293,0.031-0.625,0.326-0.738     c0.324-0.127,32.52-13.057,31.962-48.765c-0.004-0.316,0.247-0.575,0.562-0.58c0.346,0.003,0.575,0.247,0.58,0.562     c0.571,36.517-32.359,49.718-32.692,49.846C2033.388,1162.455,2033.319,1162.468,2033.25,1162.468z"/>

            <linearGradient id="SVGID_00000075139090319735630630000011546422014483017617_" gradientUnits="userSpaceOnUse" x1="-23.9702" y1="983.8774" x2="-55.8101" y2="1101.6851" gradientTransform="matrix(-1 0 0 1 1828.4299 0)" fill="#ffffff">
				<stop offset="0" style="stop-color:#ffe6d5" fill="#ffffff"/>
                <stop offset="1" style="stop-color:#ffe6d5" fill="#ffffff"/>
			</linearGradient>
            <path style="fill:url(#SVGID_00000075139090319735630630000011546422014483017617_);" d="M1832.802,1028.736     c0,0,35.777,42.847,71.804,8.051l13.92,32.28c0,0-52.611,40.737-92.516-23.358L1832.802,1028.736z"/>

            <linearGradient id="SVGID_00000115507813470730329240000002242703429610077345_" gradientUnits="userSpaceOnUse" x1="2024.1064" y1="1126.1344" x2="1615.2999" y2="678.5031" fill="#ffffff">
				<stop offset="0" style="stop-color:#ffffff" fill="#ffffff"/>
                <stop offset="1" style="stop-color:#ffe6d5" fill="#ffffff"/>
			</linearGradient>
            <path style="fill:url(#SVGID_00000115507813470730329240000002242703429610077345_);" d="M1915.62,953.288     c1.325-1.963,3.278-3.415,5.547-4.095c9.932-2.977,38.848-8.474,66.354,16.908c4.665,4.305,6.571,10.846,4.908,16.972     c-7.388,27.198-26.88,107.554-9.789,142.322c0,0-30.118,33.201-62.976,6.442c0,0-14.742-64.253-34.052-92.46     C1872.28,1019.903,1906.869,966.25,1915.62,953.288z"/>

            <linearGradient id="SVGID_00000048483378695352602880000008788911544925992356_" gradientUnits="userSpaceOnUse" x1="1930.6444" y1="867.7363" x2="1947.9777" y2="997.7365" fill="#ffffff">
				<stop offset="0" style="stop-color:#ffe6d5" fill="#ffffff"/>
                <stop offset="1" style="stop-color:#ffe6d5" fill="#ffffff"/>
			</linearGradient>
            <path style="fill:url(#SVGID_00000048483378695352602880000008788911544925992356_);" d="M1936.551,897.345     c0,0,20.041,39.245,23.555,57.267c0,0-15.117,9.459-31.924-0.873c0,0-7.066-40.923-10.345-47.983L1936.551,897.345z"/>

            <linearGradient id="SVGID_00000108283615846342558520000002183616334864398997_" gradientUnits="userSpaceOnUse" x1="1993.0468" y1="1363.8984" x2="1769.0468" y2="1519.2321" fill="#ffffff">
				<stop offset="0" style="stop-color:#ffe6d5" fill="#ffffff"/>
                <stop offset="1" style="stop-color:#ffe6d5" fill="#ffffff"/>
			</linearGradient>
            <path style="fill:url(#SVGID_00000108283615846342558520000002183616334864398997_);" d="M1881.306,1266.742     c0.113,2.917-5.009,26.054-7.796,38.395c-1.122,4.966-0.341,10.162,2.188,14.581l96.526,162.458     c1.168,1.965,2.018,4.094,2.534,6.32c1.769,7.624,5.438,26.308,3.522,43.306l-4.993,10.371l21.596-4.903l4.698-57.995     l-6.114-3.728c-5.282-3.22-9.394-8.035-11.749-13.755c-8.728-21.201-30.402-75.17-35.99-101.471     c-6.35-29.892-39.543-54.17-39.543-54.17l5.832-13.787L1881.306,1266.742z"/>

            <linearGradient id="SVGID_00000045580247494674122240000007577470135446588585_" gradientUnits="userSpaceOnUse" x1="4267.2388" y1="1089.542" x2="4271.9053" y2="1204.2089" gradientTransform="matrix(-1 -0.0095 -0.0095 1 6292.0469 51.0736)" fill="#ffffff">
				<stop offset="0" style="stop-color:#232330" fill="#ffffff"/>
                <stop offset="1" style="stop-color:#232330" fill="#ffffff"/>
			</linearGradient>
            <path style="fill:url(#SVGID_00000045580247494674122240000007577470135446588585_);" d="M2018.884,1517.313     c0,0-11.662-18.489-13.034-25.687c-1.372-7.197-5.192-19.907-12.382-16.08c0,0-3.388,34.962-2.22,48.623     c1.168,13.661-15.443,13.221-15.443,13.221s-4.578,0.644-7.931,3.995c-2.315,2.315-0.659,6.331,2.607,6.541     c5.436,0.35,14.07,0.442,23.136-1.31c3.169-0.612,5.517-3.308,5.709-6.53l2.393-40.238l14.711,18.575L2018.884,1517.313z"/>

            <linearGradient id="SVGID_00000145024859968122062170000007272425566822764418_" gradientUnits="userSpaceOnUse" x1="2122.1338" y1="1271.1351" x2="2042.1338" y2="1333.8019" fill="#ffffff">
				<stop offset="0" style="stop-color:#ffe6d5" fill="#ffffff"/>
                <stop offset="1" style="stop-color:#ffe6d5" fill="#ffffff"/>
			</linearGradient>
            <path style="fill:url(#SVGID_00000145024859968122062170000007272425566822764418_);" d="M1938.969,1292.62     c0,0,3.404,145.318,3.865,165.956c0.461,20.639-3.259,66.377-23.949,80.048l9.003,6.665c0,0,11.251-9.563,22.243-27.966     c12.348-20.675,16.082-24.452,16.082-24.452l-4.097-8.391c-1.794-3.674-2.321-7.829-1.495-11.833     c4.465-21.64,19.38-93.616,23.449-109.116c4.803-18.297,5.144-42.731-11.565-63.185     C1955.796,1279.893,1938.969,1292.62,1938.969,1292.62z"/>

            <linearGradient id="SVGID_00000103252425427305472250000005575427015414358419_" gradientUnits="userSpaceOnUse" x1="4320.4492" y1="1087.3767" x2="4325.1157" y2="1202.043" gradientTransform="matrix(-1 -0.0095 -0.0095 1 6292.0469 51.0736)" fill="#ffffff">
				<stop offset="0" style="stop-color:#232330" fill="#ffffff"/>
                <stop offset="1" style="stop-color:#232330" fill="#ffffff"/>
			</linearGradient>
            <path style="fill:url(#SVGID_00000103252425427305472250000005575427015414358419_);" d="M1958.074,1551.839     c0.642,0.006,1.187-0.454,1.278-1.089c0.689-4.845,3.555-24.267,5.9-29.297c2.687-5.76,11.463-30.002-0.005-32.06     c0,0-28.51,41.653-33.983,47.269c-5.473,5.616-12.38,1.962-12.38,1.962s-5.332,1.575-9.353,6.714     c-1.914,2.446-0.131,6.036,2.975,6.066l19.203,0.183c5.577,0.053,10.593-3.335,12.666-8.512     c3.38-8.443,9.187-20.827,15.954-26.321l-3.516,33.672C1956.735,1551.176,1957.319,1551.832,1958.074,1551.839L1958.074,1551.839     z"/>

            <linearGradient id="SVGID_00000121260063868211378880000017664949395478766774_" gradientUnits="userSpaceOnUse" x1="4332.2861" y1="1229.7518" x2="4184.2583" y2="1559.7313" gradientTransform="matrix(-1 -0.0095 -0.0095 1 6292.0469 51.0736)" fill="#ffffff">
				<stop offset="0" style="stop-color:#ffffff" fill="#ffffff"/>
                <stop offset="1" style="stop-color:#ffe6d5" fill="#ffffff"/>
			</linearGradient>
            <path style="fill:url(#SVGID_00000121260063868211378880000017664949395478766774_);" d="M1915.118,1116.169     c0,0,4.327,13.793-2.321,36.511l-41.241,144.014c-0.648,2.263,0.573,4.631,2.789,5.426     c12.336,4.427,52.887,16.941,108.244,13.125c2.787-0.192,5.124-2.165,5.73-4.893c3.647-16.418,16.092-72.435,18.655-83.945     c9.764-43.857,19.219-85.565-28.74-114.164C1956.131,1121.711,1936.963,1121.703,1915.118,1116.169z"/>

            <linearGradient id="SVGID_00000026882271806493313200000016794740194590342828_" gradientUnits="userSpaceOnUse" x1="1934.7892" y1="883.0801" x2="1931.4558" y2="982.4135" fill="#ffffff">
				<stop offset="0" style="stop-color:#ffe6d5" fill="#ffffff"/>
                <stop offset="1" style="stop-color:#ffe6d5" fill="#ffffff"/>
			</linearGradient>
            <path style="fill:url(#SVGID_00000026882271806493313200000016794740194590342828_);" d="M1964.865,985.766     c0,0,8.302,118.633-68.347,59.047c0,0-11.32-10.693-19.492-11.994c-4.402-0.7-9.369-1.168-13.014-1.451     c-1.664-0.129-2.442,2.019-1.076,2.979c2.633,1.85,6.083,3.841,9.075,4.152c5.782,0.599-0.382,4.837,5.915,15.909     c6.297,11.072,15.292,6.896,15.292,6.896s87.824,89.938,105.359-66.919C1999.195,965.205,1971.117,966.757,1964.865,985.766z"/>
            <g>
				
					<linearGradient id="SVGID_00000151540652052453770160000012612472965293242553_" gradientUnits="userSpaceOnUse" x1="-7248.8706" y1="628.7827" x2="-7271.936" y2="653.1611" gradientTransform="matrix(0.9865 -0.1635 0.2088 1.2596 8865.0449 -974.2239)" fill="#ffffff">
					<stop offset="0" style="stop-color:#232330" fill="#ffffff"/>
                        <stop offset="1" style="stop-color:#232330" fill="#ffffff"/>
				</linearGradient>
                <path style="fill:url(#SVGID_00000151540652052453770160000012612472965293242553_);" d="M1809.281,999.247l26.076-3.436      c3.109-0.515,6.318,1.306,8.239,4.677l17.153,37.914c3.229,5.665,0.932,13.18-4.293,14.047l-20.939,2.686      c-2.004,0.332-4.063-0.932-5.193-3.189l-23.198-46.303C1805.785,1002.966,1806.906,999.64,1809.281,999.247z"/>
			</g>

            <linearGradient id="SVGID_00000058553983735555017370000014332077125856995251_" gradientUnits="userSpaceOnUse" x1="11.212" y1="996.3328" x2="-5.5681" y2="1058.4192" gradientTransform="matrix(-1 0 0 1 1828.4299 0)" fill="#ffffff">
				<stop offset="0" style="stop-color:#ffe6d5" fill="#ffffff"/>
                <stop offset="1" style="stop-color:#ffe6d5" fill="#ffffff"/>
			</linearGradient>
            <path style="fill:url(#SVGID_00000058553983735555017370000014332077125856995251_);" d="M1827.071,1050.387     c0,0-17.532-25.514-15.495-28.656c2.037-3.141,17.406-7.641,21.014-8.703C1836.198,1011.967,1842.991,1035.104,1827.071,1050.387     z"/>

            <linearGradient id="SVGID_00000181058749006954524020000012359786176814016191_" gradientUnits="userSpaceOnUse" x1="-6812.7002" y1="339.7907" x2="-6826.7002" y2="467.7906" gradientTransform="matrix(0.9609 -0.2771 0.2771 0.9609 8009.2329 -3401.564)" fill="#ffffff">
				<stop offset="0" style="stop-color:#ffe6d5" fill="#ffffff"/>
                <stop offset="1" style="stop-color:#ffe6d5" fill="#ffffff"/>
			</linearGradient>
            <path style="fill:url(#SVGID_00000181058749006954524020000012359786176814016191_);" d="M1891.626,875.224     c0,0-3.735,65.973,24.021,66.897c27.756,0.924,30.449-45.984,30.449-45.984s-8.193-29.635-21.407-33.09     C1911.476,859.591,1891.626,875.224,1891.626,875.224z"/>

            <linearGradient id="SVGID_00000093876526578691709250000014064097378426048918_" gradientUnits="userSpaceOnUse" x1="1862.4933" y1="737.7297" x2="1918.4473" y2="877.0439" fill="#ffffff">
				<stop offset="0" style="stop-color:#232330" fill="#ffffff"/>
                <stop offset="1" style="stop-color:#232330" fill="#ffffff"/>
			</linearGradient>
            <path style="fill:url(#SVGID_00000093876526578691709250000014064097378426048918_);" d="M1899.788,854.861     c0,0-12.681,12.967-10.504,21.038c2.178,8.071,29.379-0.369,36.085-4.182l22.47,23.916c0,0-0.689-35.43-16.191-46.34     C1916.146,838.383,1899.788,854.861,1899.788,854.861z"/>

            <linearGradient id="SVGID_00000096767871801348154780000014694474141179658935_" gradientUnits="userSpaceOnUse" x1="-6784.0342" y1="342.9321" x2="-6798.0337" y2="470.9317" gradientTransform="matrix(0.9609 -0.2771 0.2771 0.9609 8009.2329 -3401.564)" fill="#ffffff">
				<stop offset="0" style="stop-color:#ffe6d5" fill="#ffffff"/>
                <stop offset="1" style="stop-color:#ffe6d5" fill="#ffffff"/>
			</linearGradient>
            <path style="fill:url(#SVGID_00000096767871801348154780000014694474141179658935_);" d="M1937.687,896.773     c0,0,3.382-22.628,14.443-16.266c11.061,6.363-0.811,23.899-9.452,22.805L1937.687,896.773z"/>
		</g>
        <g>
			<g>
				<path style="fill:#444a4a;" d="M1626.91,246.456l6.376,2.481c1.455,0.566,2.176,2.27,1.609,3.726      c-0.566,1.455-2.205,1.674-3.661,1.674h-0.004l-0.042-0.082l-6.372-2.524c-1.452-0.568-2.168-2.221-1.601-3.673      c0.568-1.452,2.205-2.177,3.656-1.609L1626.91,246.456z"/>
                <path style="fill:#444a4a;" d="M1648.191,253.941l6.561,1.955c1.506,0.449,2.363,1.953,1.914,3.459      c-0.449,1.505-2.033,1.834-3.538,1.834h-0.005l-6.558-1.886c-1.502-0.45-2.355-1.993-1.905-3.495      C1645.109,254.305,1646.688,253.491,1648.191,253.941z"/>
                <path style="fill:#444a4a;" d="M1670.038,259.96l6.659,1.573c1.538,0.363,2.491,2.373,2.127,3.911      c-0.363,1.538-1.904,2.596-3.443,2.596h-0.004l-6.657-2.052c-1.535-0.365-2.483-2.139-2.119-3.674      C1666.967,260.78,1668.503,259.595,1670.038,259.96z"/>
                <path style="fill:#444a4a;" d="M1692.192,264.756l6.735,1.217c1.564,0.283,2.604,2.265,2.321,3.83      c-0.283,1.565-1.78,2.806-3.345,2.806h-0.004l-6.733-1.712c-1.561-0.285-2.596-2.023-2.312-3.585      C1689.138,265.749,1690.63,264.471,1692.192,264.756z"/>
                <path style="fill:#444a4a;" d="M1714.571,268.383l6.794,0.868c1.586,0.202,2.708,1.601,2.506,3.187      c-0.203,1.586-1.653,2.454-3.239,2.454h-0.004l-6.793-0.826c-1.583-0.205-2.701-1.628-2.496-3.211      C1711.543,269.271,1712.988,268.178,1714.571,268.383z"/>
                <path style="fill:#444a4a;" d="M1737.118,270.851l6.827,0.515c1.604,0.121,2.806,1.52,2.685,3.124      c-0.121,1.604-1.52,2.686-3.124,2.686h-0.004l-6.826-0.526c-1.601-0.123-2.799-1.521-2.676-3.122      C1734.124,271.926,1735.517,270.728,1737.118,270.851z"/>
                <path style="fill:#444a4a;" d="M1759.754,272.144l6.848,0.157c1.618,0.037,2.899,0.887,2.862,2.504      c-0.037,1.618-1.379,2.37-2.996,2.37h-0.004l-6.848,0.324c-1.615-0.039-2.892-1.135-2.852-2.749      C1756.803,273.136,1758.139,272.104,1759.754,272.144z"/>
                <path style="fill:#444a4a;" d="M1782.429,272.243l6.841-0.208c1.627-0.05,2.986,0.854,3.035,2.481      c0.049,1.627-1.229,2.66-2.856,2.66h-0.004l-6.841,0.573c-1.624,0.047-2.979-1.044-3.026-2.668      C1779.531,273.457,1780.805,272.29,1782.429,272.243z"/>
                <path style="fill:#444a4a;" d="M1805.059,271.127l6.823-0.58c1.631-0.139,3.065,1.432,3.204,3.064      c0.138,1.631-1.071,3.565-2.702,3.565h-0.005l-6.824,0.208c-1.628,0.136-3.058-1.254-3.195-2.883      C1802.225,272.873,1803.43,271.263,1805.059,271.127z"/>
                <path style="fill:#444a4a;" d="M1827.599,268.773l6.782-0.957c1.63-0.23,3.138,0.35,3.368,1.98      c0.23,1.63-0.905,2.813-2.535,2.813h-0.004l-6.784,1.503c-1.628,0.227-3.131-0.63-3.359-2.258      C1824.841,270.225,1825.972,269,1827.599,268.773z"/>
                <path style="fill:#444a4a;" d="M1849.974,265.165l6.719-1.338c1.624-0.324,3.203,1.039,3.526,2.663      c0.323,1.624-0.731,3.834-2.354,3.834h-0.004l-6.721,1.02c-1.621,0.321-3.196-0.888-3.516-2.509      C1847.303,267.213,1848.353,265.486,1849.974,265.165z"/>
                <path style="fill:#444a4a;" d="M1872.109,260.297l6.627-1.718c1.612-0.418,3.257,0.078,3.675,1.69      c0.418,1.612-0.55,3.204-2.161,3.204h-0.005l-6.629,2.18c-1.61,0.415-3.251-0.318-3.666-1.927      C1869.535,262.116,1870.5,260.712,1872.109,260.297z"/>
                <path style="fill:#444a4a;" d="M1893.918,254.173l6.521-2.098c1.594-0.513,3.302,0.893,3.815,2.487      c0.513,1.594-0.364,2.059-1.958,4.343h-0.004l-6.525,1.56c-1.592,0.509-3.296-0.632-3.805-2.224      C1891.453,256.648,1892.326,254.682,1893.918,254.173z"/>
                <path style="fill:#444a4a;" d="M1915.366,246.795l6.435-2.401c1.578-0.589,3.334,0.213,3.922,1.791      c0.589,1.577-0.213,3.333-1.791,3.922l-0.013,0.005l-6.402,2.378l-0.028,0.01c-1.576,0.585-3.328-0.218-3.913-1.794      C1912.991,249.131,1913.79,247.38,1915.366,246.795z"/>
                <path style="fill:#444a4a;" d="M1937.159,239.264l6.569-1.946c1.624-0.481,3.33,0.305,3.811,1.929      c0.481,1.624-0.445,3.671-2.069,3.671h-0.005l-6.572,2.076c-1.622,0.478-3.323-0.379-3.801-2.001      S1935.538,239.742,1937.159,239.264z"/>
                <path style="fill:#444a4a;" d="M1959.391,233.236l6.681-1.516c1.661-0.377,3.312,0.973,3.689,2.633      c0.377,1.661-0.664,3.997-2.324,3.997h-0.005l-6.684,1.198c-1.658,0.374-3.305-0.822-3.679-2.48      C1956.696,235.41,1957.733,233.61,1959.391,233.236z"/>
                <path style="fill:#444a4a;" d="M1981.95,228.632l6.762-1.103c1.69-0.276,3.283,0.938,3.559,2.628      c0.276,1.69-0.87,3.626-2.56,3.626h-0.005l-6.763,1.026c-1.687,0.273-3.276-0.907-3.549-2.595      C1979.12,230.527,1980.262,228.905,1981.95,228.632z"/>
                <path style="fill:#444a4a;" d="M2004.74,225.401l6.815-0.701c1.712-0.176,3.244,1.368,3.42,3.08      c0.176,1.712-1.069,3.719-2.781,3.719h-0.005l-6.817,0.392c-1.71,0.173-3.236-1.221-3.41-2.931      C2001.789,227.25,2003.031,225.574,2004.74,225.401z"/>
                <path style="fill:#444a4a;" d="M2027.681,223.516l6.845-0.302c1.729-0.076,3.193,1.133,3.269,2.862      c0.076,1.729-1.264,3.138-2.993,3.138h-0.005l-6.845,0.422c-1.726,0.074-3.186-1.201-3.259-2.928      C2024.619,224.983,2025.955,223.59,2027.681,223.516z"/>
                <path style="fill:#444a4a;" d="M2050.697,222.977l6.851,0.103c1.74,0.026,3.129,1.375,3.104,3.115      c-0.026,1.74-1.458,3.02-3.198,3.02h-0.005l-6.851-0.03c-1.737-0.029-3.122-1.418-3.094-3.156      C2047.533,224.292,2048.96,222.949,2050.697,222.977z"/>
                <path style="fill:#444a4a;" d="M2073.712,223.81l6.832,0.518c1.745,0.132,3.052,2.08,2.919,3.825      c-0.132,1.745-1.654,3.346-3.398,3.346h-0.005l-6.832-0.955c-1.741-0.135-3.044-1.869-2.909-3.611      C2070.454,225.191,2071.97,223.675,2073.712,223.81z"/>
                <path style="fill:#444a4a;" d="M2096.643,226.061l6.785,0.953c1.742,0.245,2.956,2.085,2.711,3.827      c-0.245,1.742-1.855,2.941-3.597,2.941h-0.005l-6.784-1.194c-1.739-0.247-2.948-1.972-2.701-3.711      C2093.299,227.14,2094.904,225.814,2096.643,226.061z"/>
                <path style="fill:#444a4a;" d="M2119.393,229.807l6.704,1.414c1.73,0.365,2.837,2.495,2.472,4.226      c-0.365,1.73-2.063,2.904-3.794,2.904h-0.005l-6.702-1.856c-1.727-0.367-2.83-2.28-2.463-4.008      C2115.973,230.759,2117.666,229.44,2119.393,229.807z"/>
                <path style="fill:#444a4a;" d="M2141.843,235.146l6.581,1.908c1.707,0.495,2.69,2.121,2.195,3.829      c-0.495,1.708-2.281,2.036-3.988,2.036h-0.005l-6.578-1.759c-1.704-0.497-2.683-2.202-2.186-3.906      C2138.359,235.549,2140.139,234.649,2141.843,235.146z"/>
                <path style="fill:#444a4a;" d="M2163.838,242.204l6.401,2.442c1.67,0.637,2.507,2.046,1.87,3.715      c-0.637,1.67-2.508,3.692-4.177,1.408h-0.005l-6.397-1.991c-1.667-0.639-2.5-2.277-1.861-3.943      C2160.307,242.169,2162.172,241.565,2163.838,242.204z"/>
                <path style="fill:#444a4a;" d="M2185.171,251.125l6.143,3.017c1.613,0.792,2.278,2.741,1.486,4.354      c-0.792,1.613-2.742,2.278-4.354,1.486l-0.005-0.003l-6.139-3.027c-1.609-0.793-2.27-2.741-1.477-4.35      C2181.618,250.995,2183.562,250.332,2185.171,251.125z"/>
                <path style="fill:#444a4a;" d="M2205.583,262.072l5.802,3.641c1.53,0.96,1.992,2.979,1.031,4.508s-2.978,1.991-4.508,1.031      l-0.004-0.003l-5.797-3.65c-1.526-0.961-1.984-2.977-1.023-4.503C2202.045,261.571,2204.057,261.111,2205.583,262.072z"/>
                <path style="fill:#444a4a;" d="M2224.726,275.19l5.335,4.293c1.414,1.138,1.638,3.208,0.5,4.622      c-1.138,1.414-3.208,1.638-4.622,0.5l-0.004-0.003l-5.329-4.301c-1.411-1.139-1.631-3.205-0.492-4.615      C2221.253,274.275,2223.316,274.052,2224.726,275.19z"/>
                <path style="fill:#444a4a;" d="M2242.166,290.571l4.728,4.949c1.261,1.319,1.213,3.411-0.106,4.672      c-1.32,1.261-3.411,1.213-4.672-0.106l-0.004-0.004l-4.721-4.956c-1.257-1.319-1.206-3.408,0.114-4.664      C2238.824,289.204,2240.909,289.252,2242.166,290.571z"/>
                <path style="fill:#444a4a;" d="M2257.398,308.178l3.979,5.565c1.067,1.492,0.723,3.566-0.769,4.634      c-1.492,1.067-3.566,0.723-4.633-0.769l-0.003-0.004l-3.972-5.571c-1.063-1.491-0.716-3.562,0.775-4.625      C2254.267,306.344,2256.335,306.687,2257.398,308.178z"/>
                <path style="fill:#444a4a;" d="M2269.947,327.808l3.116,6.089c0.84,1.641,0.19,3.653-1.451,4.493      c-1.641,0.84-3.653,0.19-4.492-1.451l-0.002-0.005l-3.107-6.094c-0.836-1.64-0.185-3.647,1.456-4.483      C2267.106,325.521,2269.111,326.168,2269.947,327.808z"/>
                <path style="fill:#444a4a;" d="M2279.461,349.073l2.192,6.481c0.594,1.755,0.702,3.66-1.053,4.253      c-1.755,0.594-3.203-0.348-3.203-2.103V357.7l-3.233-6.485c-0.59-1.754-0.173-3.654,1.581-4.244      C2277.498,346.381,2278.871,347.32,2279.461,349.073z"/>
                <path style="fill:#444a4a;" d="M2285.81,371.467l1.275,6.726c0.347,1.83-0.102,3.595-1.931,3.942      c-1.83,0.347-3.189-0.854-3.189-2.684v-0.006l-2.019-6.728c-0.344-1.828,0.482-3.588,2.309-3.932      C2284.083,368.441,2285.466,369.64,2285.81,371.467z"/>
                <path style="fill:#444a4a;" d="M2289.098,394.472l0.423,6.836c0.116,1.868-0.558,3.477-2.426,3.593      c-1.868,0.116-2.847-1.304-2.847-3.173v-0.006l-1.159-6.837c-0.113-1.866,0.934-3.47,2.8-3.583      C2287.754,391.19,2288.984,392.607,2289.098,394.472z"/>
                <path style="fill:#444a4a;" d="M2289.603,417.667l-0.331,6.833c-0.091,1.879-0.797,3.329-2.676,3.238      c-1.879-0.091-2.347-1.688-2.347-3.566v-0.006l-0.549-6.833c0.094-1.876,1.245-3.321,3.121-3.228      C2288.696,414.199,2289.697,415.791,2289.603,417.667z"/>
                <path style="fill:#444a4a;" d="M2287.684,440.73l-0.98,6.781c-0.27,1.871-0.987,3.169-2.858,2.899      c-1.871-0.27-4.164-2.006-1.88-3.877v-0.006l-0.028-6.78c0.273-1.868,1.499-3.161,3.367-2.889      C2287.171,437.131,2287.956,438.862,2287.684,440.73z"/>
			</g>
            <g>
				<polygon style="fill:#444a4a;" points="1602.669,215.505 1611.689,252.206 1582.956,242.536     "/>
                <path style="fill:#3d9970;" d="M1432.458,235l120.478,62.577c2.307,1.198,5.002,1.406,7.465,0.576      c2.463-0.83,4.482-2.627,5.592-4.978l58.272-123.329c0.667-1.412,0.411-3.088-0.647-4.236c-1.058-1.148-2.708-1.54-4.17-0.99      L1432.458,235z"/>
                <polygon style="fill:#444a4a;" points="1602.658,215.512 1432.458,235 1593.316,235.445 1596.251,245.516     "/>
                <polygon style="fill:#444a4a;" points="1587.687,247.221 1611.689,252.206 1593.316,235.445     "/>
			</g>
		</g>
	</g>
</g>
</svg>