<svg xmlns="http://www.w3.org/2000/svg"  viewBox="0 0 26 26" width="26px" height="26px"><path d="M 6 0 C 4.355469 0 3 1.355469 3 3 L 3 26 L 23 26 L 23 3 C 23 1.355469 21.644531 0 20 0 Z M 6 2 L 20 2 C 20.554688 2 21 2.445313 21 3 L 21 24 L 19 24 L 19 19 L 14 19 L 14 24 L 5 24 L 5 3 C 5 2.445313 5.445313 2 6 2 Z M 7 4 L 7 7 L 12 7 L 12 4 Z M 14 4 L 14 7 L 19 7 L 19 4 Z M 7 9 L 7 12 L 12 12 L 12 9 Z M 14 9 L 14 12 L 19 12 L 19 9 Z M 7 14 L 7 17 L 12 17 L 12 14 Z M 14 14 L 14 17 L 19 17 L 19 14 Z M 7 19 L 7 22 L 12 22 L 12 19 Z"/></svg>