<svg xmlns="http://www.w3.org/2000/svg" viewBox="0 0 32 32" width="32px" height="32px">
    <path
        d="M 10 5 C 7.2504839 5 5 7.2504839 5 10 C 5 12.749516 7.2504839 15 10 15 C 12.749516 15 15 12.749516 15 10 C 15 7.2504839 12.749516 5 10 5 z M 19 5 A 1.0001 1.0001 0 0 0 18 6 L 18 13 A 1.0001 1.0001 0 0 0 19 14 L 26 14 A 1.0001 1.0001 0 0 0 27 13 L 27 6 A 1.0001 1.0001 0 0 0 26 5 L 19 5 z M 10 7 C 11.668484 7 13 8.3315161 13 10 C 13 11.668484 11.668484 13 10 13 C 8.3315161 13 7 11.668484 7 10 C 7 8.3315161 8.3315161 7 10 7 z M 20 7 L 25 7 L 25 12 L 20 12 L 20 7 z M 19.693359 17 A 1.0001 1.0001 0 0 0 18.75 17.669922 L 17.025391 22.615234 A 1.0001 1.0001 0 0 0 17.410156 23.771484 L 21.923828 26.828125 A 1.0001 1.0001 0 0 0 23.044922 26.828125 L 27.560547 23.771484 A 1.0001 1.0001 0 0 0 27.943359 22.615234 L 26.21875 17.669922 A 1.0001 1.0001 0 0 0 25.275391 17 L 19.693359 17 z M 9.9511719 17.001953 A 1.0001 1.0001 0 0 0 9.1308594 17.503906 L 5.1308594 24.503906 A 1.0001 1.0001 0 0 0 6 26 L 14 26 A 1.0001 1.0001 0 0 0 14.869141 24.503906 L 10.869141 17.503906 A 1.0001 1.0001 0 0 0 9.9511719 17.001953 z M 20.404297 19 L 24.564453 19 L 25.802734 22.546875 L 22.484375 24.792969 L 19.167969 22.546875 L 20.404297 19 z M 10 20.017578 L 12.275391 24 L 7.7246094 24 L 10 20.017578 z" />
</svg>