<svg xmlns="http://www.w3.org/2000/svg" x="0px" y="0px" width="50" height="50" viewBox="0 0 48 48">
    <path
        d="M 12.5 6 C 10.57 6 9 7.57 9 9.5 L 9 40.5 C 9 41.329 9.672 42 10.5 42 C 11.328 42 12 41.329 12 40.5 L 12 27.800781 L 17.5 27.800781 A 1.50015 1.50015 0 0 0 18.732422 27.15625 L 20.748047 24.257812 L 21.955078 29.150391 L 18.566406 32.326172 A 1.50015 1.50015 0 0 0 18.015625 33.287109 L 17.015625 40.287109 A 1.50015 1.50015 0 1 0 19.984375 40.712891 L 20.875 34.480469 L 26.158203 31.767578 C 27.239644 31.314194 28 30.244482 28 28.998047 C 28 28.751047 27.961297 28.515156 27.904297 28.285156 L 26.123047 21 L 28.904297 21 L 33.603516 24.501953 A 1.50015 1.50015 0 0 0 36 23.625 L 36 30 L 36.5 30 C 37.481 30 38.365 30.406641 39 31.056641 L 39 9.5 C 39 7.57 37.43 6 35.5 6 L 12.5 6 z M 12.5 9 L 35.5 9 C 35.775 9 36 9.224 36 9.5 L 36 23.027344 A 1.50015 1.50015 0 0 0 35.396484 22.097656 L 30.296875 18.296875 A 1.50015 1.50015 0 0 0 29.400391 18 L 23.5 18 A 1.50015 1.50015 0 0 0 23.232422 18.021484 C 23.154981 18.01546 23.08099 18 23.001953 18 C 21.913471 18 20.969419 18.583857 20.443359 19.449219 A 1.50015 1.50015 0 0 0 20.365234 19.552734 L 16.716797 24.800781 L 12 24.800781 L 12 9.5 C 12 9.224 12.225 9 12.5 9 z M 18.001953 12 C 16.342953 12 15 13.343047 15 14.998047 C 15 16.655047 16.342953 18 18.001953 18 C 19.657953 18 21 16.655047 21 14.998047 C 21 13.343047 19.657953 12 18.001953 12 z M 29.607422 30.917969 C 29.122422 32.084969 28.211813 33.050125 27.007812 33.578125 L 26.845703 33.662109 L 29.621094 34.714844 C 29.877094 34.899844 30.185 35 30.5 35 L 36.5 35 C 37.328 35 38 34.329 38 33.5 C 38 32.671 37.328 32 36.5 32 L 30.984375 32 L 29.607422 30.917969 z M 39 35.943359 C 38.365 36.593359 37.481 37 36.5 37 L 36 37 L 36 40.5 C 36 41.329 36.672 42 37.5 42 C 38.328 42 39 41.329 39 40.5 L 39 35.943359 z" />
</svg>