<svg xmlns="http://www.w3.org/2000/svg" x="0px" y="0px" width="50" height="50" viewBox="0 0 48 48">
    <path d="M 24 6.0839844 C 22.786084 6.0839844 21.571492 6.6846092 20.960938 7.8867188 L 7.4101562 34.578125 C 6.6940896 35.987705 6.993819 37.608665 7.8769531 38.662109 C 8.7600873 39.715553 10.303295 40.294139 11.816406 39.835938 L 24 36.142578 L 36.183594 39.835938 C 37.696495 40.294319 39.238107 39.715377 40.121094 38.662109 C 41.00408 37.608842 41.305177 35.989801 40.589844 34.580078 A 1.50015 1.50015 0 0 0 40.589844 34.578125 L 27.039062 7.8867188 C 26.428508 6.6846093 25.213916 6.0839844 24 6.0839844 z M 24 8.9609375 C 24.133584 8.9609375 24.266835 9.0562035 24.363281 9.2460938 L 37.914062 35.9375 C 38.086729 36.277777 38.008786 36.511893 37.822266 36.734375 C 37.635752 36.956857 37.417833 37.075462 37.052734 36.964844 L 24.435547 33.140625 A 1.50015 1.50015 0 0 0 23.564453 33.140625 L 10.947266 36.964844 C 10.581377 37.075642 10.362147 36.956644 10.175781 36.734375 C 9.9894156 36.512069 9.9130036 36.27792 10.085938 35.9375 L 23.636719 9.2460938 C 23.733165 9.0562031 23.866416 8.9609375 24 8.9609375 z"/>
</svg>