<svg xmlns="http://www.w3.org/2000/svg" x="0px" y="0px" width="50" height="50" viewBox="0 0 48 48">
    <path d="M 24 4 C 12.972066 4 4 12.972074 4 24 C 4 35.027926 12.972066 44 24 44 C 35.027934 44 44 35.027926 44 24 C 44 12.972074 35.027934 4 24 4 z M 24 7 C 33.406615 7 41 14.593391 41 24 C 41 33.406609 33.406615 41 24 41 C 14.593385 41 7 33.406609 7 24 C 7 14.593391 14.593385 7 24 7 z M 29.326172 15.009766 C 29.000794 15.033158 28.677037 15.103891 28.363281 15.222656 A 1.50015 1.50015 0 0 0 28.361328 15.222656 L 15.210938 20.212891 A 1.50015 1.50015 0 0 0 15.208984 20.212891 C 13.877899 20.718065 12.992907 22.007753 13 23.431641 A 1.50015 1.50015 0 0 0 13 23.433594 C 13.0089 24.854688 13.906034 26.133917 15.240234 26.626953 A 1.50015 1.50015 0 0 0 15.244141 26.628906 L 19.726562 28.273438 L 21.371094 32.755859 A 1.50015 1.50015 0 0 0 21.373047 32.757812 C 21.54807 33.231614 21.822801 33.652879 22.166016 33.996094 A 1.50015 1.50015 0 0 0 22.166016 33.998047 C 22.789996 34.620254 23.648254 34.992925 24.564453 35 A 1.50015 1.50015 0 0 0 24.570312 35.001953 C 25.992956 35.009053 27.284105 34.123398 27.789062 32.791016 L 32.777344 19.640625 L 32.777344 19.638672 C 33.253962 18.381982 32.947582 16.953441 31.998047 16.003906 A 1.50015 1.50015 0 0 0 31.996094 16.001953 C 31.520887 15.527633 30.927666 15.21373 30.294922 15.078125 C 29.97855 15.010323 29.65155 14.986374 29.326172 15.009766 z M 29.666016 18.007812 C 29.743488 18.024185 29.81616 18.06432 29.876953 18.125 C 29.996941 18.244988 30.033014 18.415368 29.972656 18.574219 L 24.984375 31.726562 A 1.50015 1.50015 0 0 0 24.982422 31.726562 C 24.917795 31.897221 24.767898 31.999751 24.585938 32 C 24.46825 31.9984 24.366244 31.95304 24.287109 31.875 C 24.244319 31.83221 24.21048 31.78095 24.1875 31.71875 L 24.1875 31.722656 L 22.304688 26.587891 A 1.50015 1.50015 0 0 0 21.412109 25.695312 L 16.277344 23.8125 L 16.28125 23.8125 C 16.106032 23.747748 16.001807 23.598111 16 23.416016 L 16 23.414062 C 15.999794 23.232758 16.103186 23.082188 16.273438 23.017578 L 29.425781 18.029297 C 29.50627 17.998827 29.588543 17.99144 29.666016 18.007812 z"/>
</svg>