<svg xmlns="http://www.w3.org/2000/svg" viewBox="0 0 48 48" width="48px" height="48px">
    <path
        d="M 15.779297 4.7285156 C 8.8935972 4.7285156 3.2792969 10.342816 3.2792969 17.228516 C 3.2792969 19.092246 3.6908043 20.867094 4.4257812 22.460938 L 3.59375 22.785156 C 2.6340476 23.157541 2 24.089157 2 25.115234 L 2 37.535156 C 2 38.480946 2.5416802 39.353403 3.3867188 39.773438 L 5.0273438 40.589844 A 1.5006153 1.5006153 0 1 0 6.3632812 37.902344 L 5 37.224609 L 5 25.457031 L 7.0175781 24.673828 L 7.0214844 24.671875 A 1.500566 1.500566 0 0 0 7.1855469 24.607422 L 15 21.570312 L 22.308594 24.412109 L 14.996094 27.326172 L 9.0800781 24.966797 A 1.5002522 1.5002522 0 0 0 7.96875 27.753906 L 13.5 29.958984 L 13.5 41.451172 L 11.501953 40.457031 A 1.50015 1.50015 0 1 0 10.166016 43.142578 L 13.886719 44.992188 A 1.50015 1.50015 0 0 0 13.888672 44.994141 C 14.589113 45.341859 15.410887 45.341859 16.111328 44.994141 A 1.50015 1.50015 0 0 0 16.113281 44.994141 L 26.613281 39.773438 C 27.460338 39.352306 28 38.481439 28 37.535156 L 28 37.060547 L 30.595703 38.351562 C 31.296144 38.699281 32.119872 38.699281 32.820312 38.351562 L 45.332031 32.130859 C 46.619838 31.49065 47.102138 29.833677 46.359375 28.601562 L 46.359375 28.599609 L 40.980469 19.6875 A 1.50015 1.50015 0 0 0 39.748047 18.945312 A 1.50015 1.50015 0 0 0 38.412109 21.238281 L 43.511719 29.6875 L 31.707031 35.552734 L 28 33.710938 L 28 25.115234 C 28 24.089687 27.365748 23.157204 26.40625 22.785156 L 26.404297 22.785156 L 24.515625 22.050781 L 30.207031 12.619141 L 30.207031 29.808594 A 1.50015 1.50015 0 1 0 33.207031 29.808594 L 33.207031 12.613281 L 35.222656 15.951172 A 1.50015 1.50015 0 1 0 37.791016 14.402344 L 33.849609 7.8710938 C 33.380407 7.0943169 32.544357 6.7070313 31.708984 6.7070312 C 30.873612 6.7070312 30.037562 7.0943168 29.568359 7.8710938 L 21.675781 20.947266 L 15.908203 18.705078 C 15.324332 18.477043 14.675668 18.477043 14.091797 18.705078 L 7.2363281 21.369141 C 6.6280677 20.118335 6.2792969 18.719657 6.2792969 17.228516 C 6.2792969 11.964215 10.514996 7.7285156 15.779297 7.7285156 C 18.496611 7.7285156 20.929425 8.8616299 22.662109 10.681641 A 1.50015 1.50015 0 1 0 24.833984 8.6132812 C 22.558669 6.2232916 19.333983 4.7285156 15.779297 4.7285156 z M 25 26.568359 L 25 37.224609 L 16.5 41.449219 L 16.5 29.957031 L 25 26.568359 z" />
</svg>